<svg width="16" height="12" fill="none" xmlns="http://www.w3.org/2000/svg"><path d="M14.5 1a.5.5 0 0 1 .5.5v9a.5.5 0 0 1-.5.5h-13a.5.5 0 0 1-.5-.5v-9a.5.5 0 0 1 .5-.5h13Zm-13-1A1.5 1.5 0 0 0 0 1.5v9A1.5 1.5 0 0 0 1.5 12h13a1.5 1.5 0 0 0 1.5-1.5v-9A1.5 1.5 0 0 0 14.5 0h-13Z" fill="#fff"/><path d="M5 6a.5.5 0 0 1 .5-.5h7a.5.5 0 0 1 0 1h-7A.5.5 0 0 1 5 6Zm0-2.5a.5.5 0 0 1 .5-.5h7a.5.5 0 0 1 0 1h-7a.5.5 0 0 1-.5-.5Zm0 5a.5.5 0 0 1 .5-.5h7a.5.5 0 0 1 0 1h-7a.5.5 0 0 1-.5-.5Zm-1-5a.5.5 0 1 1-1 0 .5.5 0 0 1 1 0ZM4 6a.5.5 0 1 1-1 0 .5.5 0 0 1 1 0Zm0 2.5a.5.5 0 1 1-1 0 .5.5 0 0 1 1 0Z" fill="#fff"/></svg>