<svg width="15" height="15" viewBox="0 0 15 15" fill="none" xmlns="http://www.w3.org/2000/svg">
<path d="M13.75 11.875C13.75 12.2065 13.6183 12.5245 13.3839 12.7589C13.1495 12.9933 12.8315 13.125 12.5 13.125H2.5C2.16848 13.125 1.85054 12.9933 1.61612 12.7589C1.3817 12.5245 1.25 12.2065 1.25 11.875V3.125C1.25 2.79348 1.3817 2.47554 1.61612 2.24112C1.85054 2.0067 2.16848 1.875 2.5 1.875H5.625L6.875 3.75H12.5C12.8315 3.75 13.1495 3.8817 13.3839 4.11612C13.6183 4.35054 13.75 4.66848 13.75 5V11.875Z" stroke="white" stroke-linecap="round" stroke-linejoin="round"/>
<path d="M7.5 6.875V10.625" stroke="white" stroke-linecap="round" stroke-linejoin="round"/>
<path d="M5.625 8.75H9.375" stroke="white" stroke-linecap="round" stroke-linejoin="round"/>
</svg>
