<svg width="17" height="20" viewBox="0 0 17 20" fill="none" xmlns="http://www.w3.org/2000/svg">
<path d="M1.12109 4.875H2.78661H16.1107" stroke="#333333" stroke-linecap="round" stroke-linejoin="round"/>
<path d="M5.28537 4.87446V3.05051C5.28537 2.56677 5.46085 2.10284 5.77319 1.76079C6.08553 1.41873 6.50916 1.22656 6.95088 1.22656H10.2819C10.7236 1.22656 11.1473 1.41873 11.4596 1.76079C11.7719 2.10284 11.9474 2.56677 11.9474 3.05051V4.87446M14.4457 4.87446V17.6421C14.4457 18.1259 14.2702 18.5898 13.9579 18.9318C13.6455 19.2739 13.2219 19.4661 12.7802 19.4661H4.45262C4.0109 19.4661 3.58727 19.2739 3.27493 18.9318C2.96258 18.5898 2.78711 18.1259 2.78711 17.6421V4.87446H14.4457Z" stroke="#333333" stroke-linecap="round" stroke-linejoin="round"/>
<path d="M6.94922 9.43359V14.905" stroke="#333333" stroke-linecap="round" stroke-linejoin="round"/>
<path d="M10.2812 9.43359V14.905" stroke="#333333" stroke-linecap="round" stroke-linejoin="round"/>
</svg>
