<svg width="16" height="14" viewBox="0 0 16 14" fill="none" xmlns="http://www.w3.org/2000/svg">
<path d="M0.499756 8.89902C0.632364 8.89902 0.759541 8.9517 0.853309 9.04547C0.947077 9.13924 0.999756 9.26641 0.999756 9.39902V11.899C0.999756 12.1642 1.10511 12.4186 1.29265 12.6061C1.48019 12.7937 1.73454 12.899 1.99976 12.899H13.9998C14.265 12.899 14.5193 12.7937 14.7069 12.6061C14.8944 12.4186 14.9998 12.1642 14.9998 11.899V9.39902C14.9998 9.26641 15.0524 9.13924 15.1462 9.04547C15.24 8.9517 15.3671 8.89902 15.4998 8.89902C15.6324 8.89902 15.7595 8.9517 15.8533 9.04547C15.9471 9.13924 15.9998 9.26641 15.9998 9.39902V11.899C15.9998 12.4295 15.789 12.9382 15.414 13.3132C15.0389 13.6883 14.5302 13.899 13.9998 13.899H1.99976C1.46932 13.899 0.960615 13.6883 0.585542 13.3132C0.21047 12.9382 -0.000244141 12.4295 -0.000244141 11.899V9.39902C-0.000244141 9.26641 0.0524343 9.13924 0.146202 9.04547C0.239971 8.9517 0.367148 8.89902 0.499756 8.89902Z" fill="#212529"/>
<path d="M7.64576 10.853C7.6922 10.8996 7.74738 10.9365 7.80812 10.9617C7.86887 10.9869 7.93399 10.9999 7.99976 10.9999C8.06552 10.9999 8.13064 10.9869 8.19139 10.9617C8.25213 10.9365 8.30731 10.8996 8.35376 10.853L11.3538 7.85302C11.4476 7.75914 11.5004 7.6318 11.5004 7.49902C11.5004 7.36625 11.4476 7.23891 11.3538 7.14502C11.2599 7.05114 11.1325 6.99839 10.9998 6.99839C10.867 6.99839 10.7396 7.05114 10.6458 7.14502L8.49976 9.29202V0.499023C8.49976 0.366415 8.44708 0.239238 8.35331 0.14547C8.25954 0.0517018 8.13236 -0.000976562 7.99976 -0.000976562C7.86715 -0.000976562 7.73997 0.0517018 7.6462 0.14547C7.55243 0.239238 7.49976 0.366415 7.49976 0.499023V9.29202L5.35376 7.14502C5.25987 7.05114 5.13253 6.99839 4.99976 6.99839C4.86698 6.99839 4.73964 7.05114 4.64576 7.14502C4.55187 7.23891 4.49912 7.36625 4.49912 7.49902C4.49912 7.6318 4.55187 7.75914 4.64576 7.85302L7.64576 10.853Z" fill="#212529"/>
</svg>
