<svg width="207" height="58" viewBox="0 0 207 58" fill="none" xmlns="http://www.w3.org/2000/svg">
<path d="M3.712 30C3.49867 30 3.328 29.936 3.2 29.808C3.072 29.68 3.008 29.5093 3.008 29.296V8.336C3.008 8.12267 3.072 7.952 3.2 7.824C3.328 7.67467 3.49867 7.6 3.712 7.6H12.064C14.176 7.6 15.776 8.144 16.864 9.232C17.952 10.32 18.496 11.6853 18.496 13.328C18.496 14.5867 18.2187 15.6213 17.664 16.432C17.1093 17.2427 16.448 17.8293 15.68 18.192C16.5973 18.6613 17.3653 19.376 17.984 20.336C18.624 21.296 18.944 22.4053 18.944 23.664C18.944 24.7733 18.6773 25.8187 18.144 26.8C17.632 27.76 16.8747 28.5387 15.872 29.136C14.8693 29.712 13.6747 30 12.288 30H3.712ZM11.648 17.328C13.2267 17.328 14.4213 16.9867 15.232 16.304C16.064 15.6 16.48 14.608 16.48 13.328C16.48 12.0693 16.064 11.12 15.232 10.48C14.4213 9.84 13.2267 9.52 11.648 9.52H5.024V17.328H11.648ZM11.968 28.08C13.5253 28.08 14.7413 27.6747 15.616 26.864C16.4907 26.032 16.928 24.9653 16.928 23.664C16.928 22.3413 16.4907 21.2747 15.616 20.464C14.7413 19.6533 13.5253 19.248 11.968 19.248H5.024V28.08H11.968ZM24.6183 30C24.4049 30 24.2343 29.936 24.1063 29.808C23.9783 29.68 23.9143 29.5093 23.9143 29.296V8.336C23.9143 8.12267 23.9783 7.952 24.1063 7.824C24.2343 7.67467 24.4049 7.6 24.6183 7.6H37.0983C37.3329 7.6 37.5143 7.664 37.6423 7.792C37.7703 7.92 37.8343 8.10133 37.8343 8.336V8.816C37.8343 9.02933 37.7596 9.2 37.6103 9.328C37.4823 9.456 37.3116 9.52 37.0983 9.52H25.9303V17.68H36.3943C36.6289 17.68 36.8103 17.744 36.9383 17.872C37.0663 18 37.1303 18.1813 37.1303 18.416V18.896C37.1303 19.1093 37.0556 19.28 36.9062 19.408C36.7783 19.536 36.6076 19.6 36.3943 19.6H25.9303V28.08H37.3542C37.5889 28.08 37.7703 28.144 37.8983 28.272C38.0263 28.4 38.0903 28.5813 38.0903 28.816V29.296C38.0903 29.5093 38.0156 29.68 37.8663 29.808C37.7383 29.936 37.5676 30 37.3542 30H24.6183ZM48.4518 30C48.2384 30 48.0678 29.936 47.9398 29.808C47.8118 29.68 47.7478 29.5093 47.7478 29.296V9.52H41.4118C41.1984 9.52 41.0278 9.456 40.8997 9.328C40.7718 9.2 40.7078 9.02933 40.7078 8.816V8.336C40.7078 8.12267 40.7718 7.952 40.8997 7.824C41.0278 7.67467 41.1984 7.6 41.4118 7.6H56.0678C56.3024 7.6 56.4838 7.664 56.6118 7.792C56.7398 7.92 56.8038 8.10133 56.8038 8.336V8.816C56.8038 9.02933 56.7291 9.2 56.5798 9.328C56.4518 9.456 56.2811 9.52 56.0678 9.52H49.7638V29.296C49.7638 29.5093 49.6891 29.68 49.5398 29.808C49.4118 29.936 49.2411 30 49.0278 30H48.4518ZM66.2643 30C66.0509 30 65.8803 29.936 65.7523 29.808C65.6243 29.68 65.5603 29.5093 65.5603 29.296V9.52H59.2243C59.0109 9.52 58.8403 9.456 58.7122 9.328C58.5843 9.2 58.5203 9.02933 58.5203 8.816V8.336C58.5203 8.12267 58.5843 7.952 58.7122 7.824C58.8403 7.67467 59.0109 7.6 59.2243 7.6H73.8803C74.1149 7.6 74.2963 7.664 74.4243 7.792C74.5523 7.92 74.6163 8.10133 74.6163 8.336V8.816C74.6163 9.02933 74.5416 9.2 74.3923 9.328C74.2643 9.456 74.0936 9.52 73.8803 9.52H67.5763V29.296C67.5763 29.5093 67.5016 29.68 67.3523 29.808C67.2243 29.936 67.0536 30 66.8403 30H66.2643ZM79.1808 30C78.9674 30 78.7968 29.936 78.6688 29.808C78.5408 29.68 78.4768 29.5093 78.4768 29.296V8.336C78.4768 8.12267 78.5408 7.952 78.6688 7.824C78.7968 7.67467 78.9674 7.6 79.1808 7.6H91.6608C91.8954 7.6 92.0768 7.664 92.2048 7.792C92.3328 7.92 92.3968 8.10133 92.3968 8.336V8.816C92.3968 9.02933 92.3221 9.2 92.1728 9.328C92.0448 9.456 91.8741 9.52 91.6608 9.52H80.4928V17.68H90.9568C91.1914 17.68 91.3728 17.744 91.5008 17.872C91.6288 18 91.6928 18.1813 91.6928 18.416V18.896C91.6928 19.1093 91.6181 19.28 91.4688 19.408C91.3408 19.536 91.1701 19.6 90.9568 19.6H80.4928V28.08H91.9167C92.1514 28.08 92.3328 28.144 92.4608 28.272C92.5888 28.4 92.6528 28.5813 92.6528 28.816V29.296C92.6528 29.5093 92.5781 29.68 92.4288 29.808C92.3008 29.936 92.1301 30 91.9167 30H79.1808ZM98.1183 30C97.9049 30 97.7343 29.936 97.6063 29.808C97.4783 29.68 97.4143 29.5093 97.4143 29.296V8.336C97.4143 8.12267 97.4783 7.952 97.6063 7.824C97.7343 7.67467 97.9049 7.6 98.1183 7.6H105.574C107.878 7.6 109.681 8.144 110.982 9.232C112.284 10.32 112.934 11.9307 112.934 14.064C112.934 15.7493 112.518 17.1147 111.686 18.16C110.854 19.184 109.66 19.8773 108.102 20.24L113.254 29.008C113.318 29.136 113.35 29.2533 113.35 29.36C113.35 29.5307 113.286 29.68 113.158 29.808C113.03 29.936 112.881 30 112.71 30H112.326C112.006 30 111.761 29.936 111.59 29.808C111.441 29.6587 111.281 29.4347 111.11 29.136L106.022 20.528H99.4303V29.296C99.4303 29.5093 99.3556 29.68 99.2063 29.808C99.0783 29.936 98.9076 30 98.6943 30H98.1183ZM105.414 18.608C107.27 18.608 108.646 18.2347 109.542 17.488C110.46 16.72 110.918 15.5787 110.918 14.064C110.918 12.5493 110.46 11.4187 109.542 10.672C108.646 9.904 107.27 9.52 105.414 9.52H99.4303V18.608H105.414Z" fill="white"/>
<path d="M118.587 30C118.374 30 118.203 29.936 118.075 29.808C117.947 29.68 117.883 29.5093 117.883 29.296V8.336C117.883 8.12267 117.947 7.952 118.075 7.824C118.203 7.67467 118.374 7.6 118.587 7.6H130.939C131.174 7.6 131.355 7.664 131.483 7.792C131.611 7.92 131.675 8.10133 131.675 8.336V8.816C131.675 9.02933 131.6 9.2 131.451 9.328C131.323 9.456 131.152 9.52 130.939 9.52H119.899V18.128H130.299C130.534 18.128 130.715 18.192 130.843 18.32C130.971 18.448 131.035 18.6293 131.035 18.864V19.344C131.035 19.5573 130.96 19.728 130.811 19.856C130.683 19.984 130.512 20.048 130.299 20.048H119.899V29.296C119.899 29.5093 119.824 29.68 119.675 29.808C119.547 29.936 119.376 30 119.163 30H118.587ZM136.837 30C136.624 30 136.453 29.936 136.325 29.808C136.197 29.68 136.133 29.5093 136.133 29.296V8.304C136.133 8.09067 136.197 7.92 136.325 7.792C136.453 7.664 136.624 7.6 136.837 7.6H137.445C137.658 7.6 137.829 7.664 137.957 7.792C138.085 7.92 138.149 8.09067 138.149 8.304V28.08H149.189C149.424 28.08 149.605 28.144 149.733 28.272C149.861 28.4 149.925 28.5813 149.925 28.816V29.296C149.925 29.5093 149.85 29.68 149.701 29.808C149.573 29.936 149.402 30 149.189 30H136.837ZM154.368 30C154.155 30 153.984 29.936 153.856 29.808C153.728 29.68 153.664 29.5093 153.664 29.296V8.336C153.664 8.12267 153.728 7.952 153.856 7.824C153.984 7.67467 154.155 7.6 154.368 7.6H166.848C167.083 7.6 167.264 7.664 167.392 7.792C167.52 7.92 167.584 8.10133 167.584 8.336V8.816C167.584 9.02933 167.51 9.2 167.36 9.328C167.232 9.456 167.062 9.52 166.848 9.52H155.68V17.68H166.144C166.379 17.68 166.56 17.744 166.688 17.872C166.816 18 166.88 18.1813 166.88 18.416V18.896C166.88 19.1093 166.806 19.28 166.656 19.408C166.528 19.536 166.358 19.6 166.144 19.6H155.68V28.08H167.104C167.339 28.08 167.52 28.144 167.648 28.272C167.776 28.4 167.84 28.5813 167.84 28.816V29.296C167.84 29.5093 167.766 29.68 167.616 29.808C167.488 29.936 167.318 30 167.104 30H154.368ZM173.306 30C173.092 30 172.922 29.936 172.794 29.808C172.666 29.68 172.602 29.5093 172.602 29.296V8.336C172.602 8.12267 172.666 7.952 172.794 7.824C172.922 7.67467 173.092 7.6 173.306 7.6H185.786C186.02 7.6 186.202 7.664 186.33 7.792C186.458 7.92 186.522 8.10133 186.522 8.336V8.816C186.522 9.02933 186.447 9.2 186.298 9.328C186.17 9.456 185.999 9.52 185.786 9.52H174.618V17.68H185.082C185.316 17.68 185.498 17.744 185.626 17.872C185.754 18 185.818 18.1813 185.818 18.416V18.896C185.818 19.1093 185.743 19.28 185.594 19.408C185.466 19.536 185.295 19.6 185.082 19.6H174.618V28.08H186.042C186.276 28.08 186.458 28.144 186.586 28.272C186.714 28.4 186.778 28.5813 186.778 28.816V29.296C186.778 29.5093 186.703 29.68 186.554 29.808C186.426 29.936 186.255 30 186.042 30H173.306ZM197.139 30C196.926 30 196.755 29.936 196.627 29.808C196.499 29.68 196.435 29.5093 196.435 29.296V9.52H190.099C189.886 9.52 189.715 9.456 189.587 9.328C189.459 9.2 189.395 9.02933 189.395 8.816V8.336C189.395 8.12267 189.459 7.952 189.587 7.824C189.715 7.67467 189.886 7.6 190.099 7.6H204.755C204.99 7.6 205.171 7.664 205.299 7.792C205.427 7.92 205.491 8.10133 205.491 8.336V8.816C205.491 9.02933 205.417 9.2 205.267 9.328C205.139 9.456 204.969 9.52 204.755 9.52H198.451V29.296C198.451 29.5093 198.377 29.68 198.227 29.808C198.099 29.936 197.929 30 197.715 30H197.139Z" fill="#19B3FF"/>
<path d="M6.05834 45C5.98168 45 5.92034 44.977 5.87434 44.931C5.82834 44.885 5.80534 44.8237 5.80534 44.747V37.64H3.52834C3.45168 37.64 3.39034 37.617 3.34434 37.571C3.29834 37.525 3.27534 37.4637 3.27534 37.387V37.2145C3.27534 37.1378 3.29834 37.0765 3.34434 37.0305C3.39034 36.9768 3.45168 36.95 3.52834 36.95H8.79534C8.87968 36.95 8.94484 36.973 8.99084 37.019C9.03684 37.065 9.05984 37.1302 9.05984 37.2145V37.387C9.05984 37.4637 9.03301 37.525 8.97934 37.571C8.93334 37.617 8.87201 37.64 8.79534 37.64H6.52984V44.747C6.52984 44.8237 6.50301 44.885 6.44934 44.931C6.40334 44.977 6.34201 45 6.26534 45H6.05834ZM10.3039 45C10.2272 45 10.1659 44.977 10.1199 44.931C10.0739 44.885 10.0509 44.8237 10.0509 44.747V37.088C10.0509 37.0113 10.0739 36.95 10.1199 36.904C10.1659 36.858 10.2272 36.835 10.3039 36.835H10.4994C10.5761 36.835 10.6374 36.858 10.6834 36.904C10.7294 36.95 10.7524 37.0113 10.7524 37.088V39.8135C10.9824 39.5145 11.2431 39.2883 11.5344 39.135C11.8334 38.9817 12.2167 38.905 12.6844 38.905C13.4357 38.905 14.0146 39.1465 14.4209 39.6295C14.8272 40.1048 15.0304 40.722 15.0304 41.481V44.747C15.0304 44.8237 15.0074 44.885 14.9614 44.931C14.9154 44.977 14.8541 45 14.7774 45H14.5819C14.5052 45 14.4439 44.977 14.3979 44.931C14.3519 44.885 14.3289 44.8237 14.3289 44.747V41.5385C14.3289 40.9175 14.1756 40.4345 13.8689 40.0895C13.5699 39.7445 13.1367 39.572 12.5694 39.572C12.0174 39.572 11.5766 39.7483 11.2469 40.101C10.9172 40.446 10.7524 40.9252 10.7524 41.5385V44.747C10.7524 44.8237 10.7294 44.885 10.6834 44.931C10.6374 44.977 10.5761 45 10.4994 45H10.3039ZM19.0533 45.115C18.325 45.115 17.7385 44.8773 17.2938 44.402C16.8492 43.919 16.5962 43.275 16.5348 42.47L16.5233 42.01L16.5348 41.55C16.5962 40.7527 16.8453 40.1125 17.2823 39.6295C17.727 39.1465 18.3173 38.905 19.0533 38.905C19.8507 38.905 20.4717 39.1695 20.9163 39.6985C21.3687 40.2275 21.5948 40.952 21.5948 41.872V42.0445C21.5948 42.1212 21.568 42.1825 21.5143 42.2285C21.4683 42.2745 21.407 42.2975 21.3303 42.2975H17.2363V42.4125C17.2517 42.7728 17.3322 43.1102 17.4778 43.4245C17.6312 43.7312 17.842 43.9803 18.1103 44.172C18.3787 44.356 18.693 44.448 19.0533 44.448C19.475 44.448 19.8162 44.3675 20.0768 44.2065C20.3452 44.0378 20.5368 43.8692 20.6518 43.7005C20.7208 43.6085 20.7707 43.551 20.8013 43.528C20.8397 43.505 20.9048 43.4935 20.9968 43.4935H21.1808C21.2498 43.4935 21.3073 43.5127 21.3533 43.551C21.3993 43.5893 21.4223 43.6392 21.4223 43.7005C21.4223 43.8615 21.3188 44.057 21.1118 44.287C20.9125 44.5093 20.6327 44.7048 20.2723 44.8735C19.912 45.0345 19.5057 45.115 19.0533 45.115ZM20.8933 41.6535V41.6075C20.8933 41.0172 20.7247 40.5303 20.3873 40.147C20.0577 39.7637 19.613 39.572 19.0533 39.572C18.4937 39.572 18.049 39.7637 17.7193 40.147C17.3973 40.5303 17.2363 41.0172 17.2363 41.6075V41.6535H20.8933ZM27.9353 45C27.8586 45 27.7973 44.977 27.7513 44.931C27.7053 44.885 27.6823 44.8237 27.6823 44.747V37.64H25.4053C25.3286 37.64 25.2673 37.617 25.2213 37.571C25.1753 37.525 25.1523 37.4637 25.1523 37.387V37.2145C25.1523 37.1378 25.1753 37.0765 25.2213 37.0305C25.2673 36.9768 25.3286 36.95 25.4053 36.95H30.6723C30.7566 36.95 30.8218 36.973 30.8678 37.019C30.9138 37.065 30.9368 37.1302 30.9368 37.2145V37.387C30.9368 37.4637 30.91 37.525 30.8563 37.571C30.8103 37.617 30.749 37.64 30.6723 37.64H28.4068V44.747C28.4068 44.8237 28.38 44.885 28.3263 44.931C28.2803 44.977 28.219 45 28.1423 45H27.9353ZM34.8587 45.115C33.8621 45.115 33.1146 44.8352 32.6162 44.2755C32.1179 43.7082 31.8496 42.9492 31.8112 41.9985C31.8036 41.7915 31.7997 41.4542 31.7997 40.9865C31.7997 40.5112 31.8036 40.1662 31.8112 39.9515C31.8496 39.0008 32.1179 38.2457 32.6162 37.686C33.1146 37.1187 33.8621 36.835 34.8587 36.835C35.5411 36.835 36.1084 36.9615 36.5607 37.2145C37.0131 37.4598 37.3466 37.7742 37.5612 38.1575C37.7836 38.5332 37.9062 38.9203 37.9292 39.319V39.342C37.9292 39.4033 37.9062 39.4532 37.8602 39.4915C37.8142 39.5298 37.7567 39.549 37.6877 39.549H37.4577C37.3197 39.549 37.2354 39.4685 37.2047 39.3075C37.0591 38.6558 36.7946 38.1958 36.4112 37.9275C36.0279 37.6592 35.5104 37.525 34.8587 37.525C34.1381 37.525 33.5784 37.7282 33.1797 38.1345C32.7811 38.5408 32.5664 39.1657 32.5357 40.009C32.5281 40.216 32.5242 40.5342 32.5242 40.9635C32.5242 41.3928 32.5281 41.7187 32.5357 41.941C32.5664 42.7843 32.7811 43.4092 33.1797 43.8155C33.5784 44.2218 34.1381 44.425 34.8587 44.425C35.5104 44.425 36.0279 44.2908 36.4112 44.0225C36.7946 43.7542 37.0591 43.2942 37.2047 42.6425C37.2354 42.4815 37.3197 42.401 37.4577 42.401H37.6877C37.7567 42.401 37.8142 42.424 37.8602 42.47C37.9139 42.5083 37.9369 42.562 37.9292 42.631C37.9062 43.0297 37.7836 43.4207 37.5612 43.804C37.3466 44.1797 37.0131 44.494 36.5607 44.747C36.1084 44.9923 35.5411 45.115 34.8587 45.115ZM42.3495 45.115C40.3791 45.115 39.3671 44.057 39.3135 41.941C39.3058 41.711 39.302 41.389 39.302 40.975C39.302 40.561 39.3058 40.239 39.3135 40.009C39.3441 38.9663 39.6278 38.1767 40.1645 37.64C40.7011 37.1033 41.4295 36.835 42.3495 36.835C43.2695 36.835 43.9978 37.1033 44.5345 37.64C45.0711 38.1767 45.3548 38.9663 45.3855 40.009C45.4008 40.469 45.4085 40.791 45.4085 40.975C45.4085 41.159 45.4008 41.481 45.3855 41.941C45.3318 44.057 44.3198 45.115 42.3495 45.115ZM42.3495 44.425C43.0395 44.425 43.5876 44.218 43.994 43.804C44.408 43.3823 44.6303 42.7422 44.661 41.8835C44.6763 41.4235 44.684 41.1207 44.684 40.975C44.684 40.8293 44.6763 40.5265 44.661 40.0665C44.6303 39.2078 44.408 38.5715 43.994 38.1575C43.58 37.7358 43.0318 37.525 42.3495 37.525C41.6671 37.525 41.119 37.7358 40.705 38.1575C40.291 38.5715 40.0686 39.2078 40.038 40.0665C40.0303 40.2965 40.0265 40.5993 40.0265 40.975C40.0265 41.3507 40.0303 41.6535 40.038 41.8835C40.0686 42.7422 40.2871 43.3823 40.6935 43.804C41.1075 44.218 41.6595 44.425 42.3495 44.425ZM51.8078 45C51.2404 45 50.8379 44.8313 50.6003 44.494C50.3626 44.149 50.2438 43.6775 50.2438 43.0795V39.687H49.3468C49.2701 39.687 49.2088 39.664 49.1628 39.618C49.1168 39.572 49.0938 39.5107 49.0938 39.434V39.273C49.0938 39.1963 49.1168 39.135 49.1628 39.089C49.2088 39.043 49.2701 39.02 49.3468 39.02H50.2438V37.088C50.2438 37.0113 50.2668 36.95 50.3128 36.904C50.3588 36.858 50.4201 36.835 50.4968 36.835H50.6923C50.7689 36.835 50.8303 36.858 50.8763 36.904C50.9223 36.95 50.9453 37.0113 50.9453 37.088V39.02H52.3713C52.4479 39.02 52.5093 39.043 52.5553 39.089C52.6013 39.135 52.6243 39.1963 52.6243 39.273V39.434C52.6243 39.5107 52.6013 39.572 52.5553 39.618C52.5093 39.664 52.4479 39.687 52.3713 39.687H50.9453V43.0335C50.9453 43.4628 51.0143 43.7887 51.1523 44.011C51.2979 44.2257 51.5356 44.333 51.8653 44.333H52.4863C52.5629 44.333 52.6243 44.356 52.6703 44.402C52.7163 44.448 52.7393 44.5093 52.7393 44.586V44.747C52.7393 44.8237 52.7163 44.885 52.6703 44.931C52.6243 44.977 52.5629 45 52.4863 45H51.8078ZM56.2051 45.115C55.4077 45.115 54.7867 44.8735 54.3421 44.3905C53.9051 43.8998 53.6751 43.2673 53.6521 42.493L53.6406 42.01L53.6521 41.527C53.6751 40.7527 53.9051 40.124 54.3421 39.641C54.7867 39.1503 55.4077 38.905 56.2051 38.905C57.0024 38.905 57.6196 39.1503 58.0566 39.641C58.5012 40.124 58.7351 40.7527 58.7581 41.527C58.7657 41.6037 58.7696 41.7647 58.7696 42.01C58.7696 42.2553 58.7657 42.4163 58.7581 42.493C58.7351 43.2673 58.5012 43.8998 58.0566 44.3905C57.6196 44.8735 57.0024 45.115 56.2051 45.115ZM56.2051 44.448C56.7494 44.448 57.1864 44.2755 57.5161 43.9305C57.8534 43.5778 58.0336 43.0795 58.0566 42.4355C58.0642 42.3588 58.0681 42.217 58.0681 42.01C58.0681 41.803 58.0642 41.6612 58.0566 41.5845C58.0336 40.9405 57.8534 40.446 57.5161 40.101C57.1864 39.7483 56.7494 39.572 56.2051 39.572C55.6607 39.572 55.2199 39.7483 54.8826 40.101C54.5529 40.446 54.3766 40.9405 54.3536 41.5845L54.3421 42.01L54.3536 42.4355C54.3766 43.0795 54.5529 43.5778 54.8826 43.9305C55.2199 44.2755 55.6607 44.448 56.2051 44.448ZM62.6177 45.115C61.8203 45.115 61.1993 44.8735 60.7547 44.3905C60.3177 43.8998 60.0877 43.2673 60.0647 42.493L60.0532 42.01L60.0647 41.527C60.0877 40.7527 60.3177 40.124 60.7547 39.641C61.1993 39.1503 61.8203 38.905 62.6177 38.905C63.415 38.905 64.0322 39.1503 64.4692 39.641C64.9138 40.124 65.1477 40.7527 65.1707 41.527C65.1783 41.6037 65.1822 41.7647 65.1822 42.01C65.1822 42.2553 65.1783 42.4163 65.1707 42.493C65.1477 43.2673 64.9138 43.8998 64.4692 44.3905C64.0322 44.8735 63.415 45.115 62.6177 45.115ZM62.6177 44.448C63.162 44.448 63.599 44.2755 63.9287 43.9305C64.266 43.5778 64.4462 43.0795 64.4692 42.4355C64.4768 42.3588 64.4807 42.217 64.4807 42.01C64.4807 41.803 64.4768 41.6612 64.4692 41.5845C64.4462 40.9405 64.266 40.446 63.9287 40.101C63.599 39.7483 63.162 39.572 62.6177 39.572C62.0733 39.572 61.6325 39.7483 61.2952 40.101C60.9655 40.446 60.7892 40.9405 60.7662 41.5845L60.7547 42.01L60.7662 42.4355C60.7892 43.0795 60.9655 43.5778 61.2952 43.9305C61.6325 44.2755 62.0733 44.448 62.6177 44.448ZM67.0178 45C66.9411 45 66.8798 44.977 66.8338 44.931C66.7878 44.885 66.7648 44.8237 66.7648 44.747V37.088C66.7648 37.0113 66.7878 36.95 66.8338 36.904C66.8798 36.858 66.9411 36.835 67.0178 36.835H67.2133C67.2899 36.835 67.3513 36.858 67.3973 36.904C67.4433 36.95 67.4663 37.0113 67.4663 37.088V44.747C67.4663 44.8237 67.4433 44.885 67.3973 44.931C67.3513 44.977 67.2899 45 67.2133 45H67.0178ZM74.0553 45C73.488 45 73.0855 44.8313 72.8478 44.494C72.6102 44.149 72.4913 43.6775 72.4913 43.0795V39.687H71.5943C71.5177 39.687 71.4563 39.664 71.4103 39.618C71.3643 39.572 71.3413 39.5107 71.3413 39.434V39.273C71.3413 39.1963 71.3643 39.135 71.4103 39.089C71.4563 39.043 71.5177 39.02 71.5943 39.02H72.4913V37.088C72.4913 37.0113 72.5143 36.95 72.5603 36.904C72.6063 36.858 72.6677 36.835 72.7443 36.835H72.9398C73.0165 36.835 73.0778 36.858 73.1238 36.904C73.1698 36.95 73.1928 37.0113 73.1928 37.088V39.02H74.6188C74.6955 39.02 74.7568 39.043 74.8028 39.089C74.8488 39.135 74.8718 39.1963 74.8718 39.273V39.434C74.8718 39.5107 74.8488 39.572 74.8028 39.618C74.7568 39.664 74.6955 39.687 74.6188 39.687H73.1928V43.0335C73.1928 43.4628 73.2618 43.7887 73.3998 44.011C73.5455 44.2257 73.7832 44.333 74.1128 44.333H74.7338C74.8105 44.333 74.8718 44.356 74.9178 44.402C74.9638 44.448 74.9868 44.5093 74.9868 44.586V44.747C74.9868 44.8237 74.9638 44.885 74.9178 44.931C74.8718 44.977 74.8105 45 74.7338 45H74.0553ZM78.4526 45.115C77.6553 45.115 77.0343 44.8735 76.5896 44.3905C76.1526 43.8998 75.9226 43.2673 75.8996 42.493L75.8881 42.01L75.8996 41.527C75.9226 40.7527 76.1526 40.124 76.5896 39.641C77.0343 39.1503 77.6553 38.905 78.4526 38.905C79.25 38.905 79.8671 39.1503 80.3041 39.641C80.7488 40.124 80.9826 40.7527 81.0056 41.527C81.0133 41.6037 81.0171 41.7647 81.0171 42.01C81.0171 42.2553 81.0133 42.4163 81.0056 42.493C80.9826 43.2673 80.7488 43.8998 80.3041 44.3905C79.8671 44.8735 79.25 45.115 78.4526 45.115ZM78.4526 44.448C78.997 44.448 79.434 44.2755 79.7636 43.9305C80.101 43.5778 80.2811 43.0795 80.3041 42.4355C80.3118 42.3588 80.3156 42.217 80.3156 42.01C80.3156 41.803 80.3118 41.6612 80.3041 41.5845C80.2811 40.9405 80.101 40.446 79.7636 40.101C79.434 39.7483 78.997 39.572 78.4526 39.572C77.9083 39.572 77.4675 39.7483 77.1301 40.101C76.8005 40.446 76.6241 40.9405 76.6011 41.5845L76.5896 42.01L76.6011 42.4355C76.6241 43.0795 76.8005 43.5778 77.1301 43.9305C77.4675 44.2755 77.9083 44.448 78.4526 44.448ZM85.8176 47.185C85.7409 47.185 85.6796 47.162 85.6336 47.116C85.5876 47.07 85.5646 47.0087 85.5646 46.932V39.273C85.5646 39.1963 85.5876 39.135 85.6336 39.089C85.6796 39.043 85.7409 39.02 85.8176 39.02H86.0131C86.0897 39.02 86.1511 39.043 86.1971 39.089C86.2431 39.135 86.2661 39.1963 86.2661 39.273V39.8135C86.7107 39.2078 87.3547 38.905 88.1981 38.905C89.0261 38.905 89.6356 39.1695 90.0266 39.6985C90.4252 40.2198 90.6361 40.8638 90.6591 41.6305C90.6667 41.7072 90.6706 41.8337 90.6706 42.01C90.6706 42.1863 90.6667 42.3128 90.6591 42.3895C90.6361 43.1562 90.4252 43.804 90.0266 44.333C89.6356 44.8543 89.0261 45.115 88.1981 45.115C87.3624 45.115 86.7184 44.8122 86.2661 44.2065V46.932C86.2661 47.0087 86.2431 47.07 86.1971 47.116C86.1511 47.162 86.0897 47.185 86.0131 47.185H85.8176ZM88.1291 44.448C88.7501 44.448 89.2024 44.2525 89.4861 43.8615C89.7774 43.4628 89.9346 42.953 89.9576 42.332C89.9652 42.2553 89.9691 42.148 89.9691 42.01C89.9691 41.297 89.8311 40.7143 89.5551 40.262C89.2791 39.802 88.8037 39.572 88.1291 39.572C87.5234 39.572 87.0672 39.7752 86.7606 40.1815C86.4539 40.5802 86.2891 41.0517 86.2661 41.596L86.2546 42.0445L86.2661 42.493C86.2737 42.8227 86.3466 43.137 86.4846 43.436C86.6226 43.7273 86.8296 43.9688 87.1056 44.1605C87.3816 44.3522 87.7227 44.448 88.1291 44.448ZM92.4997 45C92.423 45 92.3617 44.977 92.3157 44.931C92.2697 44.885 92.2467 44.8237 92.2467 44.747V37.088C92.2467 37.0113 92.2697 36.95 92.3157 36.904C92.3617 36.858 92.423 36.835 92.4997 36.835H92.6952C92.7719 36.835 92.8332 36.858 92.8792 36.904C92.9252 36.95 92.9482 37.0113 92.9482 37.088V44.747C92.9482 44.8237 92.9252 44.885 92.8792 44.931C92.8332 44.977 92.7719 45 92.6952 45H92.4997ZM96.4282 45.115C96.0602 45.115 95.7191 45.0383 95.4047 44.885C95.0904 44.7317 94.8374 44.5247 94.6457 44.264C94.4617 44.0033 94.3697 43.7158 94.3697 43.4015C94.3697 42.8955 94.5729 42.4815 94.9792 42.1595C95.3932 41.8375 95.9491 41.6305 96.6467 41.5385L98.4637 41.2855V40.883C98.4637 40.4613 98.3334 40.1393 98.0727 39.917C97.8197 39.687 97.4287 39.572 96.8997 39.572C96.5087 39.572 96.1867 39.6487 95.9337 39.802C95.6884 39.9553 95.5312 40.1393 95.4622 40.354C95.4316 40.446 95.3932 40.5112 95.3472 40.5495C95.3089 40.5802 95.2552 40.5955 95.1862 40.5955H95.0252C94.9562 40.5955 94.8949 40.5725 94.8412 40.5265C94.7952 40.4728 94.7722 40.4115 94.7722 40.3425C94.7722 40.1738 94.8489 39.9783 95.0022 39.756C95.1556 39.526 95.3932 39.3267 95.7152 39.158C96.0372 38.9893 96.4321 38.905 96.8997 38.905C97.7201 38.905 98.3027 39.1005 98.6477 39.4915C98.9927 39.8825 99.1652 40.3578 99.1652 40.9175V44.747C99.1652 44.8237 99.1422 44.885 99.0962 44.931C99.0502 44.977 98.9889 45 98.9122 45H98.7167C98.6401 45 98.5787 44.977 98.5327 44.931C98.4867 44.885 98.4637 44.8237 98.4637 44.747V44.2065C98.2951 44.4595 98.0459 44.6742 97.7162 44.8505C97.3942 45.0268 96.9649 45.115 96.4282 45.115ZM96.5432 44.448C97.1029 44.448 97.5629 44.264 97.9232 43.896C98.2836 43.528 98.4637 42.999 98.4637 42.309V41.918L96.9802 42.125C96.3516 42.2093 95.8762 42.355 95.5542 42.562C95.2322 42.769 95.0712 43.0297 95.0712 43.344C95.0712 43.6967 95.2169 43.9688 95.5082 44.1605C95.8072 44.3522 96.1522 44.448 96.5432 44.448ZM101.237 45C101.16 45 101.099 44.977 101.053 44.931C101.007 44.885 100.984 44.8237 100.984 44.747V39.273C100.984 39.1963 101.007 39.135 101.053 39.089C101.099 39.043 101.16 39.02 101.237 39.02H101.432C101.509 39.02 101.57 39.043 101.616 39.089C101.662 39.135 101.685 39.1963 101.685 39.273V39.8135C101.915 39.5145 102.176 39.2883 102.467 39.135C102.766 38.9817 103.15 38.905 103.617 38.905C104.369 38.905 104.947 39.1465 105.354 39.6295C105.76 40.1048 105.963 40.722 105.963 41.481V44.747C105.963 44.8237 105.94 44.885 105.894 44.931C105.848 44.977 105.787 45 105.71 45H105.515C105.438 45 105.377 44.977 105.331 44.931C105.285 44.885 105.262 44.8237 105.262 44.747V41.5385C105.262 40.9175 105.108 40.4345 104.802 40.0895C104.503 39.7445 104.07 39.572 103.502 39.572C102.95 39.572 102.509 39.7483 102.18 40.101C101.85 40.446 101.685 40.9252 101.685 41.5385V44.747C101.685 44.8237 101.662 44.885 101.616 44.931C101.57 44.977 101.509 45 101.432 45H101.237ZM111.429 47.185C111.368 47.185 111.314 47.162 111.268 47.116C111.222 47.07 111.199 47.0163 111.199 46.955C111.199 46.9167 111.222 46.84 111.268 46.725L112.154 44.655L109.957 39.48C109.911 39.365 109.888 39.2883 109.888 39.25C109.888 39.1887 109.911 39.135 109.957 39.089C110.003 39.043 110.057 39.02 110.118 39.02H110.36C110.483 39.02 110.571 39.0775 110.624 39.1925L112.556 43.7465L114.534 39.1925C114.596 39.0775 114.684 39.02 114.799 39.02H115.029C115.09 39.02 115.144 39.043 115.19 39.089C115.236 39.135 115.259 39.1887 115.259 39.25C115.259 39.2883 115.236 39.365 115.19 39.48L111.924 47.0125C111.87 47.1275 111.782 47.185 111.659 47.185H111.429ZM118.624 45.115C117.827 45.115 117.206 44.8735 116.761 44.3905C116.324 43.8998 116.094 43.2673 116.071 42.493L116.06 42.01L116.071 41.527C116.094 40.7527 116.324 40.124 116.761 39.641C117.206 39.1503 117.827 38.905 118.624 38.905C119.421 38.905 120.039 39.1503 120.476 39.641C120.92 40.124 121.154 40.7527 121.177 41.527C121.185 41.6037 121.189 41.7647 121.189 42.01C121.189 42.2553 121.185 42.4163 121.177 42.493C121.154 43.2673 120.92 43.8998 120.476 44.3905C120.039 44.8735 119.421 45.115 118.624 45.115ZM118.624 44.448C119.168 44.448 119.605 44.2755 119.935 43.9305C120.272 43.5778 120.453 43.0795 120.476 42.4355C120.483 42.3588 120.487 42.217 120.487 42.01C120.487 41.803 120.483 41.6612 120.476 41.5845C120.453 40.9405 120.272 40.446 119.935 40.101C119.605 39.7483 119.168 39.572 118.624 39.572C118.08 39.572 117.639 39.7483 117.302 40.101C116.972 40.446 116.796 40.9405 116.773 41.5845L116.761 42.01L116.773 42.4355C116.796 43.0795 116.972 43.5778 117.302 43.9305C117.639 44.2755 118.08 44.448 118.624 44.448ZM125.002 45.115C124.251 45.115 123.68 44.8773 123.289 44.402C122.898 43.9267 122.702 43.3057 122.702 42.539V39.273C122.702 39.1963 122.725 39.135 122.771 39.089C122.817 39.043 122.878 39.02 122.955 39.02H123.151C123.227 39.02 123.289 39.043 123.335 39.089C123.381 39.135 123.404 39.1963 123.404 39.273V42.4815C123.404 43.7925 123.975 44.448 125.117 44.448C125.669 44.448 126.106 44.2755 126.428 43.9305C126.758 43.5778 126.923 43.0948 126.923 42.4815V39.273C126.923 39.1963 126.946 39.135 126.992 39.089C127.038 39.043 127.099 39.02 127.176 39.02H127.371C127.448 39.02 127.509 39.043 127.555 39.089C127.601 39.135 127.624 39.1963 127.624 39.273V44.747C127.624 44.8237 127.601 44.885 127.555 44.931C127.509 44.977 127.448 45 127.371 45H127.176C127.099 45 127.038 44.977 126.992 44.931C126.946 44.885 126.923 44.8237 126.923 44.747V44.2065C126.693 44.5055 126.428 44.7317 126.129 44.885C125.838 45.0383 125.462 45.115 125.002 45.115ZM129.74 45C129.663 45 129.602 44.977 129.556 44.931C129.51 44.885 129.487 44.8237 129.487 44.747V39.2845C129.487 39.2078 129.51 39.1465 129.556 39.1005C129.602 39.0468 129.663 39.02 129.74 39.02H129.924C130 39.02 130.062 39.0468 130.108 39.1005C130.161 39.1465 130.188 39.2078 130.188 39.2845V39.8135C130.464 39.2845 130.986 39.02 131.752 39.02H132.178C132.254 39.02 132.316 39.043 132.362 39.089C132.408 39.135 132.431 39.1963 132.431 39.273V39.434C132.431 39.5107 132.408 39.572 132.362 39.618C132.316 39.664 132.254 39.687 132.178 39.687H131.683C131.223 39.687 130.859 39.8212 130.591 40.0895C130.322 40.3578 130.188 40.722 130.188 41.182V44.747C130.188 44.8237 130.161 44.885 130.108 44.931C130.062 44.977 130 45 129.924 45H129.74ZM136.571 45C136.495 45 136.433 44.977 136.387 44.931C136.341 44.885 136.318 44.8237 136.318 44.747V37.2145C136.318 37.1378 136.341 37.0765 136.387 37.0305C136.433 36.9768 136.495 36.95 136.571 36.95H141.056C141.141 36.95 141.206 36.973 141.252 37.019C141.298 37.065 141.321 37.1302 141.321 37.2145V37.387C141.321 37.4637 141.294 37.525 141.24 37.571C141.194 37.617 141.133 37.64 141.056 37.64H137.043V40.5725H140.803C140.888 40.5725 140.953 40.5955 140.999 40.6415C141.045 40.6875 141.068 40.7527 141.068 40.837V41.0095C141.068 41.0862 141.041 41.1475 140.987 41.1935C140.941 41.2395 140.88 41.2625 140.803 41.2625H137.043V44.31H141.148C141.233 44.31 141.298 44.333 141.344 44.379C141.39 44.425 141.413 44.4902 141.413 44.5745V44.747C141.413 44.8237 141.386 44.885 141.332 44.931C141.286 44.977 141.225 45 141.148 45H136.571ZM145.438 45C145.246 45 145.116 44.908 145.047 44.724L142.379 37.3065L142.356 37.18C142.356 37.1187 142.379 37.065 142.425 37.019C142.471 36.973 142.525 36.95 142.586 36.95H142.828C142.897 36.95 142.95 36.9692 142.989 37.0075C143.035 37.0458 143.065 37.0842 143.081 37.1225L145.599 44.1605L148.118 37.1225C148.133 37.0842 148.16 37.0458 148.198 37.0075C148.244 36.9692 148.302 36.95 148.371 36.95H148.612C148.673 36.95 148.727 36.973 148.773 37.019C148.819 37.065 148.842 37.1187 148.842 37.18L148.819 37.3065L146.151 44.724C146.082 44.908 145.952 45 145.76 45H145.438ZM153.088 45C153.011 45 152.95 44.977 152.904 44.931C152.858 44.885 152.835 44.8237 152.835 44.747V39.273C152.835 39.1963 152.858 39.135 152.904 39.089C152.95 39.043 153.011 39.02 153.088 39.02H153.283C153.36 39.02 153.421 39.043 153.467 39.089C153.513 39.135 153.536 39.1963 153.536 39.273V39.6755C153.736 39.4225 153.966 39.2308 154.226 39.1005C154.495 38.9702 154.813 38.905 155.181 38.905C156.039 38.905 156.653 39.2653 157.021 39.986C157.205 39.6563 157.465 39.3957 157.803 39.204C158.148 39.0047 158.539 38.905 158.976 38.905C159.612 38.905 160.13 39.1235 160.528 39.5605C160.927 39.9898 161.126 40.6032 161.126 41.4005V44.747C161.126 44.8237 161.103 44.885 161.057 44.931C161.011 44.977 160.95 45 160.873 45H160.678C160.601 45 160.54 44.977 160.494 44.931C160.448 44.885 160.425 44.8237 160.425 44.747V41.5155C160.425 40.8178 160.279 40.3195 159.988 40.0205C159.704 39.7215 159.328 39.572 158.861 39.572C158.447 39.572 158.086 39.7253 157.78 40.032C157.481 40.331 157.331 40.8255 157.331 41.5155V44.747C157.331 44.8237 157.308 44.885 157.262 44.931C157.216 44.977 157.155 45 157.078 45H156.883C156.806 45 156.745 44.977 156.699 44.931C156.653 44.885 156.63 44.8237 156.63 44.747V41.5155C156.63 40.8255 156.48 40.331 156.181 40.032C155.882 39.7253 155.51 39.572 155.066 39.572C154.652 39.572 154.291 39.7253 153.985 40.032C153.686 40.331 153.536 40.8217 153.536 41.504V44.747C153.536 44.8237 153.513 44.885 153.467 44.931C153.421 44.977 153.36 45 153.283 45H153.088ZM163.058 37.7895C162.981 37.7895 162.92 37.7665 162.874 37.7205C162.828 37.6745 162.805 37.6132 162.805 37.5365V37.0995C162.805 37.0228 162.828 36.9615 162.874 36.9155C162.92 36.8618 162.981 36.835 163.058 36.835H163.495C163.571 36.835 163.633 36.8618 163.679 36.9155C163.732 36.9615 163.759 37.0228 163.759 37.0995V37.5365C163.759 37.6132 163.732 37.6745 163.679 37.7205C163.633 37.7665 163.571 37.7895 163.495 37.7895H163.058ZM163.184 45C163.107 45 163.046 44.977 163 44.931C162.954 44.885 162.931 44.8237 162.931 44.747V39.273C162.931 39.1963 162.954 39.135 163 39.089C163.046 39.043 163.107 39.02 163.184 39.02H163.38C163.456 39.02 163.518 39.043 163.564 39.089C163.61 39.135 163.633 39.1963 163.633 39.273V44.747C163.633 44.8237 163.61 44.885 163.564 44.931C163.518 44.977 163.456 45 163.38 45H163.184ZM167.723 47.53C167.125 47.53 166.645 47.4265 166.285 47.2195C165.925 47.0125 165.672 46.7748 165.526 46.5065C165.388 46.2458 165.319 46.0158 165.319 45.8165C165.319 45.7475 165.342 45.69 165.388 45.644C165.442 45.598 165.503 45.575 165.572 45.575H165.733C165.802 45.575 165.856 45.5903 165.894 45.621C165.94 45.6593 165.978 45.7245 166.009 45.8165C166.247 46.5142 166.799 46.863 167.665 46.863C168.324 46.863 168.811 46.725 169.126 46.449C169.44 46.1807 169.597 45.6977 169.597 45V44.2065C169.152 44.8122 168.508 45.115 167.665 45.115C166.837 45.115 166.224 44.8467 165.825 44.31C165.434 43.7657 165.227 43.1063 165.204 42.332L165.193 42.01L165.204 41.688C165.227 40.9137 165.434 40.2582 165.825 39.7215C166.224 39.1772 166.837 38.905 167.665 38.905C168.501 38.905 169.145 39.2078 169.597 39.8135V39.2845C169.597 39.2078 169.62 39.1465 169.666 39.1005C169.712 39.0468 169.773 39.02 169.85 39.02H170.034C170.111 39.02 170.172 39.0468 170.218 39.1005C170.272 39.1465 170.299 39.2078 170.299 39.2845V44.885C170.299 45.7053 170.107 46.3493 169.724 46.817C169.34 47.2923 168.673 47.53 167.723 47.53ZM167.734 44.448C168.34 44.448 168.796 44.2487 169.103 43.85C169.409 43.4437 169.574 42.9683 169.597 42.424C169.605 42.3473 169.609 42.2093 169.609 42.01C169.609 41.8107 169.605 41.6727 169.597 41.596C169.574 41.0517 169.409 40.5802 169.103 40.1815C168.796 39.7752 168.34 39.572 167.734 39.572C167.113 39.572 166.657 39.7713 166.366 40.17C166.082 40.561 165.929 41.067 165.906 41.688L165.894 42.01L165.906 42.332C165.929 42.953 166.082 43.4628 166.366 43.8615C166.657 44.2525 167.113 44.448 167.734 44.448ZM172.427 45C172.35 45 172.289 44.977 172.243 44.931C172.197 44.885 172.174 44.8237 172.174 44.747V39.2845C172.174 39.2078 172.197 39.1465 172.243 39.1005C172.289 39.0468 172.35 39.02 172.427 39.02H172.611C172.687 39.02 172.749 39.0468 172.795 39.1005C172.848 39.1465 172.875 39.2078 172.875 39.2845V39.8135C173.151 39.2845 173.673 39.02 174.439 39.02H174.865C174.941 39.02 175.003 39.043 175.049 39.089C175.095 39.135 175.118 39.1963 175.118 39.273V39.434C175.118 39.5107 175.095 39.572 175.049 39.618C175.003 39.664 174.941 39.687 174.865 39.687H174.37C173.91 39.687 173.546 39.8212 173.278 40.0895C173.009 40.3578 172.875 40.722 172.875 41.182V44.747C172.875 44.8237 172.848 44.885 172.795 44.931C172.749 44.977 172.687 45 172.611 45H172.427ZM177.692 45.115C177.324 45.115 176.983 45.0383 176.668 44.885C176.354 44.7317 176.101 44.5247 175.909 44.264C175.725 44.0033 175.633 43.7158 175.633 43.4015C175.633 42.8955 175.837 42.4815 176.243 42.1595C176.657 41.8375 177.213 41.6305 177.91 41.5385L179.727 41.2855V40.883C179.727 40.4613 179.597 40.1393 179.336 39.917C179.083 39.687 178.692 39.572 178.163 39.572C177.772 39.572 177.45 39.6487 177.197 39.802C176.952 39.9553 176.795 40.1393 176.726 40.354C176.695 40.446 176.657 40.5112 176.611 40.5495C176.573 40.5802 176.519 40.5955 176.45 40.5955H176.289C176.22 40.5955 176.159 40.5725 176.105 40.5265C176.059 40.4728 176.036 40.4115 176.036 40.3425C176.036 40.1738 176.113 39.9783 176.266 39.756C176.419 39.526 176.657 39.3267 176.979 39.158C177.301 38.9893 177.696 38.905 178.163 38.905C178.984 38.905 179.566 39.1005 179.911 39.4915C180.256 39.8825 180.429 40.3578 180.429 40.9175V44.747C180.429 44.8237 180.406 44.885 180.36 44.931C180.314 44.977 180.253 45 180.176 45H179.98C179.904 45 179.842 44.977 179.796 44.931C179.75 44.885 179.727 44.8237 179.727 44.747V44.2065C179.559 44.4595 179.31 44.6742 178.98 44.8505C178.658 45.0268 178.229 45.115 177.692 45.115ZM177.807 44.448C178.367 44.448 178.827 44.264 179.187 43.896C179.547 43.528 179.727 42.999 179.727 42.309V41.918L178.244 42.125C177.615 42.2093 177.14 42.355 176.818 42.562C176.496 42.769 176.335 43.0297 176.335 43.344C176.335 43.6967 176.481 43.9688 176.772 44.1605C177.071 44.3522 177.416 44.448 177.807 44.448ZM184.204 45C183.636 45 183.234 44.8313 182.996 44.494C182.759 44.149 182.64 43.6775 182.64 43.0795V39.687H181.743C181.666 39.687 181.605 39.664 181.559 39.618C181.513 39.572 181.49 39.5107 181.49 39.434V39.273C181.49 39.1963 181.513 39.135 181.559 39.089C181.605 39.043 181.666 39.02 181.743 39.02H182.64V37.088C182.64 37.0113 182.663 36.95 182.709 36.904C182.755 36.858 182.816 36.835 182.893 36.835H183.088C183.165 36.835 183.226 36.858 183.272 36.904C183.318 36.95 183.341 37.0113 183.341 37.088V39.02H184.767C184.844 39.02 184.905 39.043 184.951 39.089C184.997 39.135 185.02 39.1963 185.02 39.273V39.434C185.02 39.5107 184.997 39.572 184.951 39.618C184.905 39.664 184.844 39.687 184.767 39.687H183.341V43.0335C183.341 43.4628 183.41 43.7887 183.548 44.011C183.694 44.2257 183.932 44.333 184.261 44.333H184.882C184.959 44.333 185.02 44.356 185.066 44.402C185.112 44.448 185.135 44.5093 185.135 44.586V44.747C185.135 44.8237 185.112 44.885 185.066 44.931C185.02 44.977 184.959 45 184.882 45H184.204ZM186.451 37.7895C186.374 37.7895 186.313 37.7665 186.267 37.7205C186.221 37.6745 186.198 37.6132 186.198 37.5365V37.0995C186.198 37.0228 186.221 36.9615 186.267 36.9155C186.313 36.8618 186.374 36.835 186.451 36.835H186.888C186.964 36.835 187.026 36.8618 187.072 36.9155C187.125 36.9615 187.152 37.0228 187.152 37.0995V37.5365C187.152 37.6132 187.125 37.6745 187.072 37.7205C187.026 37.7665 186.964 37.7895 186.888 37.7895H186.451ZM186.577 45C186.5 45 186.439 44.977 186.393 44.931C186.347 44.885 186.324 44.8237 186.324 44.747V39.273C186.324 39.1963 186.347 39.135 186.393 39.089C186.439 39.043 186.5 39.02 186.577 39.02H186.773C186.849 39.02 186.911 39.043 186.957 39.089C187.003 39.135 187.026 39.1963 187.026 39.273V44.747C187.026 44.8237 187.003 44.885 186.957 44.931C186.911 44.977 186.849 45 186.773 45H186.577ZM191.162 45.115C190.364 45.115 189.743 44.8735 189.299 44.3905C188.862 43.8998 188.632 43.2673 188.609 42.493L188.597 42.01L188.609 41.527C188.632 40.7527 188.862 40.124 189.299 39.641C189.743 39.1503 190.364 38.905 191.162 38.905C191.959 38.905 192.576 39.1503 193.013 39.641C193.458 40.124 193.692 40.7527 193.715 41.527C193.722 41.6037 193.726 41.7647 193.726 42.01C193.726 42.2553 193.722 42.4163 193.715 42.493C193.692 43.2673 193.458 43.8998 193.013 44.3905C192.576 44.8735 191.959 45.115 191.162 45.115ZM191.162 44.448C191.706 44.448 192.143 44.2755 192.473 43.9305C192.81 43.5778 192.99 43.0795 193.013 42.4355C193.021 42.3588 193.025 42.217 193.025 42.01C193.025 41.803 193.021 41.6612 193.013 41.5845C192.99 40.9405 192.81 40.446 192.473 40.101C192.143 39.7483 191.706 39.572 191.162 39.572C190.617 39.572 190.176 39.7483 189.839 40.101C189.509 40.446 189.333 40.9405 189.31 41.5845L189.299 42.01L189.31 42.4355C189.333 43.0795 189.509 43.5778 189.839 43.9305C190.176 44.2755 190.617 44.448 191.162 44.448ZM195.55 45C195.474 45 195.412 44.977 195.366 44.931C195.32 44.885 195.297 44.8237 195.297 44.747V39.273C195.297 39.1963 195.32 39.135 195.366 39.089C195.412 39.043 195.474 39.02 195.55 39.02H195.746C195.822 39.02 195.884 39.043 195.93 39.089C195.976 39.135 195.999 39.1963 195.999 39.273V39.8135C196.229 39.5145 196.489 39.2883 196.781 39.135C197.08 38.9817 197.463 38.905 197.931 38.905C198.682 38.905 199.261 39.1465 199.667 39.6295C200.074 40.1048 200.277 40.722 200.277 41.481V44.747C200.277 44.8237 200.254 44.885 200.208 44.931C200.162 44.977 200.1 45 200.024 45H199.828C199.752 45 199.69 44.977 199.644 44.931C199.598 44.885 199.575 44.8237 199.575 44.747V41.5385C199.575 40.9175 199.422 40.4345 199.115 40.0895C198.816 39.7445 198.383 39.572 197.816 39.572C197.264 39.572 196.823 39.7483 196.493 40.101C196.164 40.446 195.999 40.9252 195.999 41.5385V44.747C195.999 44.8237 195.976 44.885 195.93 44.931C195.884 44.977 195.822 45 195.746 45H195.55Z" fill="white"/>
</svg>
