<svg width="24" height="24" viewBox="0 0 24 24" fill="none" xmlns="http://www.w3.org/2000/svg">
<rect width="24" height="24" fill="white" fill-opacity="0.01"/>
<path d="M13.6875 17.625C13.6875 18.0726 13.5097 18.5018 13.1932 18.8182C12.8768 19.1347 12.4476 19.3125 12 19.3125C11.5524 19.3125 11.1232 19.1347 10.8068 18.8182C10.4903 18.5018 10.3125 18.0726 10.3125 17.625C10.3125 17.1774 10.4903 16.7482 10.8068 16.4318C11.1232 16.1153 11.5524 15.9375 12 15.9375C12.4476 15.9375 12.8768 16.1153 13.1932 16.4318C13.5097 16.7482 13.6875 17.1774 13.6875 17.625ZM13.6875 12C13.6875 12.4476 13.5097 12.8768 13.1932 13.1932C12.8768 13.5097 12.4476 13.6875 12 13.6875C11.5524 13.6875 11.1232 13.5097 10.8068 13.1932C10.4903 12.8768 10.3125 12.4476 10.3125 12C10.3125 11.5524 10.4903 11.1232 10.8068 10.8068C11.1232 10.4903 11.5524 10.3125 12 10.3125C12.4476 10.3125 12.8768 10.4903 13.1932 10.8068C13.5097 11.1232 13.6875 11.5524 13.6875 12ZM13.6875 6.375C13.6875 6.82255 13.5097 7.25178 13.1932 7.56824C12.8768 7.88471 12.4476 8.0625 12 8.0625C11.5524 8.0625 11.1232 7.88471 10.8068 7.56824C10.4903 7.25178 10.3125 6.82255 10.3125 6.375C10.3125 5.92745 10.4903 5.49822 10.8068 5.18176C11.1232 4.86529 11.5524 4.6875 12 4.6875C12.4476 4.6875 12.8768 4.86529 13.1932 5.18176C13.5097 5.49822 13.6875 5.92745 13.6875 6.375Z" fill="#212529"/>
</svg>
