<svg width="15" height="15" viewBox="0 0 15 15" fill="none" xmlns="http://www.w3.org/2000/svg">
<path d="M10 1.875H0.625V10H10V1.875Z" stroke="white" stroke-linecap="round" stroke-linejoin="round"/>
<path d="M10 5H12.5L14.375 6.875V10H10V5Z" stroke="white" stroke-linecap="round" stroke-linejoin="round"/>
<path d="M3.4375 13.125C4.30044 13.125 5 12.4254 5 11.5625C5 10.6996 4.30044 10 3.4375 10C2.57456 10 1.875 10.6996 1.875 11.5625C1.875 12.4254 2.57456 13.125 3.4375 13.125Z" stroke="white" stroke-linecap="round" stroke-linejoin="round"/>
<path d="M11.5625 13.125C12.4254 13.125 13.125 12.4254 13.125 11.5625C13.125 10.6996 12.4254 10 11.5625 10C10.6996 10 10 10.6996 10 11.5625C10 12.4254 10.6996 13.125 11.5625 13.125Z" stroke="white" stroke-linecap="round" stroke-linejoin="round"/>
</svg>
