<svg width="16" height="16" viewBox="0 0 16 16" fill="none" xmlns="http://www.w3.org/2000/svg">
<rect width="16" height="16" fill="white" fill-opacity="0.01"/>
<g clip-path="url(#clip0_1962_54681)">
<path d="M0.499634 9.89894C0.632242 9.89894 0.759419 9.95162 0.853187 10.0454C0.946955 10.1392 0.999634 10.2663 0.999634 10.3989V12.8989C0.999634 13.1642 1.10499 13.4185 1.29253 13.606C1.48006 13.7936 1.73442 13.8989 1.99963 13.8989H13.9996C14.2649 13.8989 14.5192 13.7936 14.7067 13.606C14.8943 13.4185 14.9996 13.1642 14.9996 12.8989V10.3989C14.9996 10.2663 15.0523 10.1392 15.1461 10.0454C15.2398 9.95162 15.367 9.89894 15.4996 9.89894C15.6322 9.89894 15.7594 9.95162 15.8532 10.0454C15.947 10.1392 15.9996 10.2663 15.9996 10.3989V12.8989C15.9996 13.4294 15.7889 13.9381 15.4138 14.3132C15.0388 14.6882 14.5301 14.8989 13.9996 14.8989H1.99963C1.4692 14.8989 0.960493 14.6882 0.58542 14.3132C0.210348 13.9381 -0.000366211 13.4294 -0.000366211 12.8989V10.3989C-0.000366211 10.2663 0.0523122 10.1392 0.14608 10.0454C0.239849 9.95162 0.367026 9.89894 0.499634 9.89894Z" fill="#212529"/>
<path d="M7.64563 1.14494C7.69208 1.09838 7.74725 1.06143 7.808 1.03623C7.86875 1.01102 7.93387 0.998047 7.99963 0.998047C8.0654 0.998047 8.13052 1.01102 8.19127 1.03623C8.25201 1.06143 8.30719 1.09838 8.35363 1.14494L11.3536 4.14494C11.4475 4.23883 11.5003 4.36616 11.5003 4.49894C11.5003 4.63172 11.4475 4.75905 11.3536 4.85294C11.2597 4.94683 11.1324 4.99957 10.9996 4.99957C10.8669 4.99957 10.7395 4.94683 10.6456 4.85294L8.49963 2.70594V11.4989C8.49963 11.6315 8.44696 11.7587 8.35319 11.8525C8.25942 11.9463 8.13224 11.9989 7.99963 11.9989C7.86703 11.9989 7.73985 11.9463 7.64608 11.8525C7.55231 11.7587 7.49963 11.6315 7.49963 11.4989V2.70594L5.35363 4.85294C5.30715 4.89943 5.25196 4.93631 5.19122 4.96146C5.13048 4.98662 5.06538 4.99957 4.99963 4.99957C4.93389 4.99957 4.86879 4.98662 4.80805 4.96146C4.74731 4.93631 4.69212 4.89943 4.64563 4.85294C4.59915 4.80645 4.56227 4.75126 4.53711 4.69052C4.51195 4.62978 4.499 4.56468 4.499 4.49894C4.499 4.4332 4.51195 4.3681 4.53711 4.30736C4.56227 4.24662 4.59915 4.19143 4.64563 4.14494L7.64563 1.14494Z" fill="#212529"/>
</g>
<defs>
<clipPath id="clip0_1962_54681">
<rect width="16" height="16" fill="white"/>
</clipPath>
</defs>
</svg>
