<svg width="16" height="16" viewBox="0 0 16 16" fill="none" xmlns="http://www.w3.org/2000/svg">
<rect width="16" height="16" fill="white" fill-opacity="0.01"/>
<g clip-path="url(#clip0_1962_54667)">
<path d="M0.999634 13.999C0.999634 13.999 -0.000366211 13.999 -0.000366211 12.999C-0.000366211 11.999 0.999634 8.99902 5.99963 8.99902C10.9996 8.99902 11.9996 11.999 11.9996 12.999C11.9996 13.999 10.9996 13.999 10.9996 13.999H0.999634ZM5.99963 7.99902C6.79528 7.99902 7.55835 7.68295 8.12095 7.12034C8.68356 6.55773 8.99963 5.79467 8.99963 4.99902C8.99963 4.20337 8.68356 3.44031 8.12095 2.8777C7.55835 2.31509 6.79528 1.99902 5.99963 1.99902C5.20398 1.99902 4.44092 2.31509 3.87831 2.8777C3.3157 3.44031 2.99963 4.20337 2.99963 4.99902C2.99963 5.79467 3.3157 6.55773 3.87831 7.12034C4.44092 7.68295 5.20398 7.99902 5.99963 7.99902Z" fill="#212529"/>
<path fill-rule="evenodd" clip-rule="evenodd" d="M13.4996 4.99902C13.6322 4.99902 13.7594 5.0517 13.8532 5.14547C13.947 5.23924 13.9996 5.36642 13.9996 5.49902V6.99902H15.4996C15.6322 6.99902 15.7594 7.0517 15.8532 7.14547C15.947 7.23924 15.9996 7.36642 15.9996 7.49902C15.9996 7.63163 15.947 7.75881 15.8532 7.85258C15.7594 7.94634 15.6322 7.99902 15.4996 7.99902H13.9996V9.49902C13.9996 9.63163 13.947 9.75881 13.8532 9.85258C13.7594 9.94635 13.6322 9.99902 13.4996 9.99902C13.367 9.99902 13.2398 9.94635 13.1461 9.85258C13.0523 9.75881 12.9996 9.63163 12.9996 9.49902V7.99902H11.4996C11.367 7.99902 11.2398 7.94634 11.1461 7.85258C11.0523 7.75881 10.9996 7.63163 10.9996 7.49902C10.9996 7.36642 11.0523 7.23924 11.1461 7.14547C11.2398 7.0517 11.367 6.99902 11.4996 6.99902H12.9996V5.49902C12.9996 5.36642 13.0523 5.23924 13.1461 5.14547C13.2398 5.0517 13.367 4.99902 13.4996 4.99902Z" fill="#212529"/>
</g>
<defs>
<clipPath id="clip0_1962_54667">
<rect width="16" height="16" fill="white"/>
</clipPath>
</defs>
</svg>
