<svg width="30" height="30" viewBox="0 0 30 30" fill="none" xmlns="http://www.w3.org/2000/svg">
<g clip-path="url(#clip0)">
<path d="M15 27.5C21.9036 27.5 27.5 21.9036 27.5 15C27.5 8.09644 21.9036 2.5 15 2.5C8.09644 2.5 2.5 8.09644 2.5 15C2.5 21.9036 8.09644 27.5 15 27.5Z" stroke="white" stroke-width="1.5" stroke-linecap="round" stroke-linejoin="round"/>
<path d="M13.5635 16.8652C13.5635 16.2158 13.644 15.6982 13.8052 15.3125C13.9663 14.9268 14.2837 14.5044 14.7573 14.0454C15.2358 13.5815 15.5386 13.252 15.6655 13.0566C15.8608 12.7588 15.9585 12.4365 15.9585 12.0898C15.9585 11.6309 15.8438 11.2817 15.6143 11.0425C15.3896 10.7983 15.0576 10.6763 14.6182 10.6763C14.1982 10.6763 13.8589 10.7959 13.6001 11.0352C13.3462 11.2695 13.2192 11.5894 13.2192 11.9946H11.4395C11.4492 11.1304 11.7422 10.4468 12.3184 9.94385C12.8994 9.44092 13.666 9.18945 14.6182 9.18945C15.5996 9.18945 16.3638 9.43848 16.9106 9.93652C17.4624 10.4346 17.7383 11.1304 17.7383 12.0239C17.7383 12.8198 17.3672 13.6035 16.625 14.375L15.7241 15.2612C15.4019 15.6274 15.2358 16.1621 15.2261 16.8652H13.5635ZM13.439 19.1431C13.439 18.855 13.5293 18.623 13.71 18.4473C13.8906 18.2666 14.1348 18.1763 14.4424 18.1763C14.7549 18.1763 15.0015 18.269 15.1821 18.4546C15.3628 18.6353 15.4531 18.8647 15.4531 19.1431C15.4531 19.4116 15.3652 19.6362 15.1895 19.8169C15.0137 19.9976 14.7646 20.0879 14.4424 20.0879C14.1201 20.0879 13.8711 19.9976 13.6953 19.8169C13.5244 19.6362 13.439 19.4116 13.439 19.1431Z" fill="white"/>
</g>
<defs>
<clipPath id="clip0">
<rect width="30" height="30" fill="white"/>
</clipPath>
</defs>
</svg>
