<?xml version="1.0" encoding="utf-8"?>
<!-- Generator: Adobe Illustrator 25.3.0, SVG Export Plug-In . SVG Version: 6.00 Build 0)  -->
<svg version="1.1" id="Layer_1" xmlns="http://www.w3.org/2000/svg" xmlns:xlink="http://www.w3.org/1999/xlink" x="0px" y="0px"
	 viewBox="0 0 457.2 499.8" style="enable-background:new 0 0 457.2 499.8;" xml:space="preserve">
<g>
	<path d="M443.5,330.1c18.8-26.5,18-55.1-0.6-75.1c4.8-18.2,1.6-33.7,1.2-35.5c-3.4-15.3-12.5-27.9-26.2-36.5
		c-34.8-21.6-94.4-14.3-130.3-7.1c0.9-4.4,2.4-10.2,5-17.9l2.7-8C307.2,115.8,329.5,52,260,7.1c-15.5-8.3-28.8-9.3-39.5-3
		c-18,10.6-18.5,35.7-18.8,54c-0.1,3.4-0.1,6.6-0.3,8.9c-7.9,47.9-31.9,92.8-69.3,129.9C88.9,239.7,81,270.8,79.7,279l-0.4,133.7
		c0,12.9-10.5,23.4-23.3,23.4s-23.3-10.5-23.3-23.4V297.9c0-12.9,10.5-23.4,23.3-23.4h5c9,0,16.3-7.3,16.3-16.3
		c0-9-7.3-16.3-16.3-16.3h-5C25.1,241.9,0,267,0,297.9v114.9c0,30.8,25.1,55.9,55.9,55.9s55.9-25.1,55.9-55.9l-0.1-128.2
		c0.4-2.6,5.3-26.9,43.2-64.5c42.3-42,69.5-93.1,78.8-150.3c0.2-3.1,0.3-6.9,0.4-11c0.1-7,0.4-23.3,1.6-26.1c0.1,0,2.7-0.1,7.6,2.5
		c43.4,28.1,35.7,62.4,21.1,104.3l-2.9,8.4c-10,29.9-10.5,47.6-1.6,57.5c4.8,5.3,11.7,7.5,19.7,5.8c40.3-9.7,96.2-15.7,120.8-0.3
		c6.4,4,10.1,9,11.6,15.9c0,0.1,2.1,10.5-1.4,21.8c-2.6,8.4-1.2,17.1,5.4,25.7c4.3,4.3,15.8,15.8,0.7,37.2c-6.2,8.7-8,20.2-5,31.5
		c2.2,8.4,2.2,21.5-10.8,36.3c-6.5,7.4-10.3,16.8-11.2,27.3c-1.3,15.3-11.1,43-62.4,56.3c-27.7,6.6-71.4,6-126.3-1.7
		c-9-1.2-17.1,4.9-18.4,13.8c-1.3,8.9,4.9,17.2,13.8,18.4c31.3,4.4,59,6.6,82.8,6.6c21.8,0,40.5-1.8,55.9-5.5
		c73.7-19.1,85.4-65.9,87-85.1c0.3-3.4,1.5-6.5,3.3-8.6c23.6-26.9,21.3-53,17.8-66.1C442.8,332.3,443,330.7,443.5,330.1z"/>
	<circle cx="154.4" cy="466.4" r="12"/>
</g>
</svg>
