<svg width="24" height="17" viewBox="0 0 24 17" fill="none" xmlns="http://www.w3.org/2000/svg">
<mask id="path-1-inside-1" fill="white">
<path d="M11.7242 0C10.6164 0 9.70962 0.929408 9.70962 2.06496C9.70962 2.77469 10.0673 3.40924 10.6036 3.78147C5.77016 4.317 1.9541 8.27431 1.65122 13.19C1.64778 13.2463 1.65566 13.3028 1.67436 13.3559C1.69307 13.4091 1.7222 13.4577 1.75996 13.4988C1.79772 13.5399 1.84331 13.5727 1.89391 13.595C1.94451 13.6174 1.99904 13.6289 2.05414 13.6288H21.3943C21.4494 13.6289 21.5039 13.6174 21.5545 13.595C21.6051 13.5727 21.6507 13.5399 21.6885 13.4988C21.7262 13.4577 21.7554 13.4091 21.7741 13.3559C21.7928 13.3028 21.8007 13.2463 21.7972 13.19C21.4943 8.27431 17.6783 4.317 12.8448 3.78147C13.3811 3.40924 13.7388 2.77469 13.7388 2.06496C13.7388 0.929408 12.8321 0 11.7242 0ZM11.7242 0.825986C12.3966 0.825986 12.933 1.3758 12.933 2.06496C12.933 2.75413 12.3966 3.30394 11.7242 3.30394C11.0519 3.30394 10.5155 2.75413 10.5155 2.06496C10.5155 1.3758 11.0519 0.825986 11.7242 0.825986ZM11.7242 4.54292C16.5146 4.54292 20.4178 8.16453 20.9284 12.8028H2.52002C3.03065 8.16453 6.93383 4.54292 11.7242 4.54292ZM0.366914 15.6937C0.260053 15.704 0.161549 15.7574 0.0930706 15.8421C0.0245924 15.9268 -0.00825028 16.0359 0.00176793 16.1454C0.0117862 16.255 0.0638443 16.3559 0.14649 16.4261C0.229136 16.4963 0.335601 16.53 0.442462 16.5197H23.006C23.0594 16.5205 23.1124 16.5104 23.1619 16.49C23.2115 16.4696 23.2566 16.4393 23.2946 16.4008C23.3326 16.3624 23.3628 16.3166 23.3834 16.2661C23.404 16.2156 23.4146 16.1615 23.4146 16.1067C23.4146 16.052 23.404 15.9978 23.3834 15.9473C23.3628 15.8968 23.3326 15.851 23.2946 15.8126C23.2566 15.7742 23.2115 15.7439 23.1619 15.7235C23.1124 15.7031 23.0594 15.693 23.006 15.6937H0.442462C0.429877 15.6931 0.417272 15.6931 0.404688 15.6937C0.392103 15.6931 0.379498 15.6931 0.366914 15.6937Z"/>
</mask>
<path d="M10.6036 3.78147L10.7137 4.77538L13.3659 4.48153L11.1738 2.95997L10.6036 3.78147ZM1.65122 13.19L0.653114 13.1285L0.653076 13.1291L1.65122 13.19ZM2.05414 13.6288V12.6288L2.05225 12.6288L2.05414 13.6288ZM21.3943 13.6288L21.3962 12.6288H21.3943V13.6288ZM21.7972 13.19L22.7954 13.1291L22.7953 13.1285L21.7972 13.19ZM12.8448 3.78147L12.2746 2.95997L10.0826 4.48153L12.7347 4.77538L12.8448 3.78147ZM20.9284 12.8028V13.8028H22.0446L21.9224 12.6933L20.9284 12.8028ZM2.52002 12.8028L1.52602 12.6933L1.40388 13.8028H2.52002V12.8028ZM0.366914 15.6937L0.318923 14.6949L0.295051 14.696L0.271261 14.6983L0.366914 15.6937ZM0.442462 16.5197V15.5197H0.394525L0.346808 15.5243L0.442462 16.5197ZM23.006 16.5197L23.0205 15.5198L23.0132 15.5197H23.006V16.5197ZM23.006 15.6937V16.6937H23.0132L23.0205 16.6936L23.006 15.6937ZM0.442462 15.6937L0.394422 16.6926L0.418428 16.6937H0.442462V15.6937ZM0.404688 15.6937L0.356696 16.6926L0.404712 16.6949L0.452727 16.6926L0.404688 15.6937ZM11.7242 -1C10.0409 -1 8.70962 0.400544 8.70962 2.06496H10.7096C10.7096 1.45827 11.1918 1 11.7242 1V-1ZM8.70962 2.06496C8.70962 3.11319 9.23691 4.05011 10.0334 4.60296L11.1738 2.95997C10.8978 2.76838 10.7096 2.43619 10.7096 2.06496H8.70962ZM10.4935 2.78755C5.17939 3.37634 0.986062 7.72474 0.653114 13.1285L2.64933 13.2515C2.92213 8.82388 6.36093 5.25766 10.7137 4.77538L10.4935 2.78755ZM0.653076 13.1291C0.641528 13.3184 0.667926 13.5086 0.731117 13.688L2.61761 13.0238C2.64339 13.0971 2.65404 13.1742 2.64937 13.2508L0.653076 13.1291ZM0.731117 13.688C0.794322 13.8676 0.893346 14.0335 1.02338 14.1752L2.49654 12.8225C2.55105 12.8818 2.59181 12.9506 2.61761 13.0238L0.731117 13.688ZM1.02338 14.1752C1.15347 14.3168 1.31195 14.4312 1.48983 14.5098L2.29799 12.6803C2.37468 12.7142 2.44198 12.763 2.49654 12.8225L1.02338 14.1752ZM1.48983 14.5098C1.66777 14.5884 1.86056 14.6291 2.05604 14.6288L2.05225 12.6288C2.13753 12.6286 2.22125 12.6464 2.29799 12.6803L1.48983 14.5098ZM2.05414 14.6288H21.3943V12.6288H2.05414V14.6288ZM21.3924 14.6288C21.5879 14.6291 21.7807 14.5884 21.9586 14.5098L21.1504 12.6803C21.2272 12.6464 21.3109 12.6286 21.3962 12.6288L21.3924 14.6288ZM21.9586 14.5098C22.1365 14.4312 22.295 14.3168 22.4251 14.1752L20.9519 12.8225C21.0064 12.7631 21.0737 12.7142 21.1504 12.6803L21.9586 14.5098ZM22.4251 14.1752C22.5551 14.0336 22.6541 13.8676 22.7173 13.688L20.8308 13.0238C20.8566 12.9505 20.8974 12.8818 20.9519 12.8225L22.4251 14.1752ZM22.7173 13.688C22.7805 13.5086 22.8069 13.3184 22.7954 13.1291L20.7991 13.2508C20.7944 13.1742 20.805 13.0971 20.8308 13.0238L22.7173 13.688ZM22.7953 13.1285C22.4624 7.72474 18.269 3.37634 12.955 2.78755L12.7347 4.77538C17.0875 5.25766 20.5263 8.82388 20.7991 13.2515L22.7953 13.1285ZM13.4151 4.60296C14.2115 4.05011 14.7388 3.11319 14.7388 2.06496H12.7388C12.7388 2.43619 12.5506 2.76838 12.2746 2.95997L13.4151 4.60296ZM14.7388 2.06496C14.7388 0.400544 13.4075 -1 11.7242 -1V1C12.2567 1 12.7388 1.45827 12.7388 2.06496H14.7388ZM11.7242 1.82599C11.8212 1.82599 11.933 1.90467 11.933 2.06496H13.933C13.933 0.84694 12.972 -0.174014 11.7242 -0.174014V1.82599ZM11.933 2.06496C11.933 2.22526 11.8212 2.30394 11.7242 2.30394V4.30394C12.972 4.30394 13.933 3.28299 13.933 2.06496H11.933ZM11.7242 2.30394C11.6273 2.30394 11.5155 2.22526 11.5155 2.06496H9.51546C9.51546 3.28299 10.4764 4.30394 11.7242 4.30394V2.30394ZM11.5155 2.06496C11.5155 1.90467 11.6273 1.82599 11.7242 1.82599V-0.174014C10.4764 -0.174014 9.51546 0.84694 9.51546 2.06496H11.5155ZM11.7242 5.54292C15.9943 5.54292 19.4785 8.77047 19.9344 12.9122L21.9224 12.6933C21.3571 7.5586 17.0349 3.54292 11.7242 3.54292V5.54292ZM20.9284 11.8028H2.52002V13.8028H20.9284V11.8028ZM3.51401 12.9122C3.96999 8.77047 7.45412 5.54292 11.7242 5.54292V3.54292C6.41353 3.54292 2.09132 7.5586 1.52602 12.6933L3.51401 12.9122ZM0.271261 14.6983C-0.107363 14.7347 -0.450068 14.9233 -0.684616 15.2134L0.870757 16.4707C0.773166 16.5914 0.627469 16.6733 0.462567 16.6891L0.271261 14.6983ZM-0.684616 15.2134C-0.918469 15.5027 -1.02754 15.8707 -0.994075 16.2365L0.997611 16.0544C1.01104 16.2012 0.967654 16.3509 0.870757 16.4707L-0.684616 15.2134ZM-0.994075 16.2365C-0.960597 16.6026 -0.786219 16.946 -0.500842 17.1883L0.793823 15.6639C0.913908 15.7659 0.984169 15.9074 0.997611 16.0544L-0.994075 16.2365ZM-0.500842 17.1883C-0.214548 17.4315 0.159227 17.5515 0.538115 17.5151L0.346808 15.5243C0.511974 15.5084 0.672821 15.5612 0.793823 15.6639L-0.500842 17.1883ZM0.442462 17.5197H23.006V15.5197H0.442462V17.5197ZM22.9915 17.5196C23.1809 17.5224 23.3684 17.4864 23.5428 17.4146L22.7811 15.5653C22.8564 15.5343 22.9379 15.5186 23.0205 15.5198L22.9915 17.5196ZM23.5428 17.4146C23.7171 17.3428 23.8742 17.2368 24.0054 17.1042L22.5838 15.6975C22.639 15.6417 22.7058 15.5963 22.7811 15.5653L23.5428 17.4146ZM24.0054 17.1042C24.1366 16.9716 24.2395 16.815 24.3093 16.644L22.4576 15.8882C22.4861 15.8183 22.5286 15.7532 22.5838 15.6975L24.0054 17.1042ZM24.3093 16.644C24.379 16.4731 24.4146 16.2906 24.4146 16.1067H22.4146C22.4146 16.0323 22.429 15.9581 22.4576 15.8882L24.3093 16.644ZM24.4146 16.1067C24.4146 15.9229 24.379 15.7403 24.3093 15.5694L22.4576 16.3252C22.429 16.2553 22.4146 16.1811 22.4146 16.1067H24.4146ZM24.3093 15.5694C24.2395 15.3985 24.1366 15.2418 24.0054 15.1092L22.5838 16.516C22.5286 16.4602 22.4861 16.3952 22.4576 16.3252L24.3093 15.5694ZM24.0054 15.1092C23.8742 14.9766 23.7171 14.8707 23.5428 14.7988L22.7811 16.6481C22.7058 16.6171 22.639 16.5718 22.5838 16.516L24.0054 15.1092ZM23.5428 14.7988C23.3684 14.727 23.1809 14.6911 22.9915 14.6938L23.0205 16.6936C22.9379 16.6948 22.8564 16.6791 22.7811 16.6481L23.5428 14.7988ZM23.006 14.6937H0.442462V16.6937H23.006V14.6937ZM0.490501 14.6949C0.445909 14.6927 0.401241 14.6927 0.356648 14.6949L0.452727 16.6926C0.433304 16.6935 0.413846 16.6935 0.394422 16.6926L0.490501 14.6949ZM0.452679 14.6949C0.408119 14.6927 0.363483 14.6927 0.318923 14.6949L0.414906 16.6926C0.395514 16.6935 0.376088 16.6935 0.356696 16.6926L0.452679 14.6949Z" fill="white" mask="url(#path-1-inside-1)"/>
</svg>
