<svg width="20" height="20" viewBox="0 0 20 20" fill="none" xmlns="http://www.w3.org/2000/svg">
<path d="M1 16V10C1 7.61305 1.94821 5.32387 3.63604 3.63604C5.32387 1.94821 7.61305 1 10 1C12.3869 1 14.6761 1.94821 16.364 3.63604C18.0518 5.32387 19 7.61305 19 10V16M19 17C19 17.5304 18.7893 18.0391 18.4142 18.4142C18.0391 18.7893 17.5304 19 17 19H16C15.4696 19 14.9609 18.7893 14.5858 18.4142C14.2107 18.0391 14 17.5304 14 17V14C14 13.4696 14.2107 12.9609 14.5858 12.5858C14.9609 12.2107 15.4696 12 16 12H19V17ZM1 17C1 17.5304 1.21071 18.0391 1.58579 18.4142C1.96086 18.7893 2.46957 19 3 19H4C4.53043 19 5.03914 18.7893 5.41421 18.4142C5.78929 18.0391 6 17.5304 6 17V14C6 13.4696 5.78929 12.9609 5.41421 12.5858C5.03914 12.2107 4.53043 12 4 12H1V17Z" stroke="#333333" stroke-linecap="round" stroke-linejoin="round"/>
</svg>
