<svg width="10" height="10" viewBox="0 0 10 10" fill="none" xmlns="http://www.w3.org/2000/svg">
<path d="M9.44453 10H9.5C9.77614 10 10 9.77614 10 9.5V9.44534C10 9.44474 10 9.44415 10 9.44355V3C10 2.72386 9.77614 2.5 9.5 2.5C9.22386 2.5 9 2.72386 9 3V8.21433L0.948393 0.162718C0.731435 -0.0542402 0.379676 -0.0542402 0.162718 0.162718C-0.0542395 0.379677 -0.0542395 0.731434 0.162718 0.948392L8.21433 9H3C2.72386 9 2.5 9.22386 2.5 9.5C2.5 9.77614 2.72386 10 3 10H9.44453C9.44447 10 9.44459 10 9.44453 10Z" fill="url(#paint0_linear_6736_120104)"/>
<defs>
<linearGradient id="paint0_linear_6736_120104" x1="5" y1="10" x2="5" y2="-9.53674e-07" gradientUnits="userSpaceOnUse">
<stop stop-color="#D14485"/>
<stop offset="1" stop-color="#E23248"/>
</linearGradient>
</defs>
</svg>
