<svg width="40" height="40" viewBox="0 0 40 40" xmlns="http://www.w3.org/2000/svg">
  <g filter="url(#filter0_bd_5223_42544)">
    <path fill-rule="evenodd" clip-rule="evenodd" d="M20 33C27.1797 33 33 27.1797 33 20C33 12.8203 27.1797 7 20 7C12.8203 7 7 12.8203 7 20C7 27.1797 12.8203 33 20 33ZM27.2425 16.6074C27.6124 16.1973 27.5799 15.565 27.1699 15.195C26.7598 14.8251 26.1275 14.8576 25.7575 15.2676L18.1211 23.7319L15.055 20.3334C14.685 19.9233 14.0527 19.8908 13.6426 20.2608C13.2326 20.6307 13.2001 21.2631 13.57 21.6731L16.84 25.2976C17.5346 26.0675 18.7076 26.0675 19.4022 25.2976L27.2425 16.6074Z" fill="black" fill-opacity="0.3" />
  </g>
  <defs>
    <filter id="filter0_bd_5223_42544" x="-10" y="-10" width="60" height="60" filterUnits="userSpaceOnUse" color-interpolation-filters="sRGB">
      <feFlood flood-opacity="0" result="BackgroundImageFix" />
      <feGaussianBlur in="BackgroundImageFix" stdDeviation="5" />
      <feComposite in2="SourceAlpha" operator="in" result="effect1_backgroundBlur_5223_42544" />
      <feColorMatrix in="SourceAlpha" type="matrix" values="0 0 0 0 0 0 0 0 0 0 0 0 0 0 0 0 0 0 127 0" result="hardAlpha" />
      <feOffset dy="1" />
      <feGaussianBlur stdDeviation="1.5" />
      <feColorMatrix type="matrix" values="0 0 0 0 0 0 0 0 0 0 0 0 0 0 0 0 0 0 0.2 0" />
      <feBlend mode="normal" in2="effect1_backgroundBlur_5223_42544" result="effect2_dropShadow_5223_42544" />
      <feBlend mode="normal" in="SourceGraphic" in2="effect2_dropShadow_5223_42544" result="shape" />
    </filter>
  </defs>
</svg>
