<svg width="40" height="40" viewBox="0 0 40 40" fill="none" xmlns="http://www.w3.org/2000/svg">
<path fill-rule="evenodd" clip-rule="evenodd" d="M20 29C24.9706 29 29 24.9706 29 20C29 15.0294 24.9706 11 20 11C15.0294 11 11 15.0294 11 20C11 24.9706 15.0294 29 20 29ZM17.5239 19.0479C17.8765 19.0479 18.2181 18.9256 18.4907 18.702C18.7632 18.4783 18.9498 18.1671 19.0185 17.8213C19.0873 17.4755 19.0341 17.1165 18.8679 16.8056C18.7017 16.4946 18.4328 16.2509 18.1071 16.116C17.7814 15.9811 17.4189 15.9633 17.0816 16.0656C16.7442 16.168 16.4527 16.3841 16.2568 16.6773C16.061 16.9704 15.9728 17.3224 16.0073 17.6733C16.0419 18.0242 16.197 18.3522 16.4463 18.6015C16.5875 18.7435 16.7554 18.856 16.9404 18.9326C17.1254 19.0093 17.3237 19.0484 17.5239 19.0479ZM23.6986 16.3021C23.6632 16.2667 23.6212 16.2386 23.575 16.2195C23.5288 16.2003 23.4793 16.1905 23.4292 16.1905C23.3792 16.1905 23.3297 16.2003 23.2834 16.2195C23.2372 16.2386 23.1952 16.2667 23.1598 16.3021L16.3022 23.1598C16.2668 23.1952 16.2387 23.2372 16.2196 23.2834C16.2004 23.3297 16.1905 23.3792 16.1905 23.4293C16.1905 23.4793 16.2003 23.5289 16.2195 23.5751C16.2386 23.6214 16.2667 23.6634 16.3021 23.6988C16.3375 23.7342 16.3795 23.7622 16.4257 23.7814C16.472 23.8005 16.5215 23.8104 16.5716 23.8104C16.6216 23.8104 16.6712 23.8005 16.7174 23.7813C16.7636 23.7621 16.8056 23.734 16.841 23.6986L23.6986 16.8409C23.734 16.8055 23.7621 16.7635 23.7812 16.7173C23.8004 16.6711 23.8102 16.6215 23.8102 16.5715C23.8102 16.5215 23.8004 16.4719 23.7812 16.4257C23.7621 16.3795 23.734 16.3375 23.6986 16.3021ZM22.7744 20.9827C23.0699 21.0413 23.3413 21.1863 23.5544 21.3992C23.8397 21.6852 24 22.0727 24 22.4768C24 22.8808 23.8397 23.2683 23.5544 23.5543C23.3413 23.7672 23.0699 23.9122 22.7744 23.9708C22.479 24.0295 22.1728 23.9992 21.8946 23.8839C21.6163 23.7686 21.3785 23.5733 21.2112 23.3229C21.0439 23.0724 20.9546 22.778 20.9546 22.4768C20.9546 22.1755 21.0439 21.8811 21.2112 21.6306C21.3785 21.3802 21.6163 21.1849 21.8946 21.0696C22.1728 20.9543 22.479 20.924 22.7744 20.9827Z" fill="black" fill-opacity="0.7"/>
</svg>
