<svg width="24" height="21" viewBox="0 0 24 21" fill="none" xmlns="http://www.w3.org/2000/svg">
<path fill-rule="evenodd" clip-rule="evenodd" d="M10.5179 0.0992855C7.55827 0.480129 5.24473 2.00688 3.89807 4.46781C3.7962 4.65398 3.9331 4.87981 4.14784 4.87981H19.8522C20.0669 4.87981 20.2038 4.65398 20.1019 4.46781C18.3265 1.22337 14.6842 -0.436813 10.5179 0.0992855ZM0 15.2837C0 16.0129 0.600251 16.6041 1.3407 16.6041H9.39548C9.7669 16.6041 10.1217 16.4524 10.3752 16.1851L10.9714 15.5565C11.518 14.9803 11.981 14.5088 12.0003 14.5088C12.0196 14.5088 12.4819 14.9803 13.0275 15.5565L13.6219 16.1843C13.8755 16.4521 14.2306 16.6041 14.6024 16.6041H22.6593C23.3997 16.6041 24 16.0129 24 15.2837V7.70697C24 6.97773 23.3997 6.38655 22.6593 6.38655H1.3407C0.60025 6.38655 0 6.97773 0 7.70697V15.2837Z" fill="black" fill-opacity="0.7"/>
<path d="M7.84028 18.8629C7.84028 20.5872 10.4517 21 11.8983 21C14.7915 21 16.2185 19.5753 16.2185 18.8629H7.84028Z" fill="black" fill-opacity="0.7"/>
</svg>
