<svg width="28" height="23" viewBox="0 0 28 23" fill="none" xmlns="http://www.w3.org/2000/svg">
<path d="M25.5102 9.47342V17.0999C25.5102 17.1407 25.4864 17.1778 25.4493 17.1947L14.2608 22.3056V9.94172L24.1586 5.45795C24.2386 5.4217 24.2407 5.3088 24.162 5.26971L14.6508 0.543428C14.6223 0.529269 14.5889 0.528904 14.5601 0.542436L4.30538 5.36144C4.22492 5.39926 4.22572 5.51399 4.3067 5.55067L13.7398 9.8239V22.2642L2.59743 17.1947C2.56025 17.1777 2.53639 17.1407 2.53639 17.0998V9.58739L0.058067 8.36297C-0.0043673 8.33212 -0.0195572 8.24989 0.0277365 8.19878L2.99312 4.99376L14.5215 0L25.0991 4.99376L27.9733 8.19582C28.0202 8.2481 28.003 8.33089 27.9392 8.36016L25.5102 9.47342Z" fill="black" fill-opacity="0.3"/>
</svg>
