<svg width="40" height="40" viewBox="0 0 40 40" fill="none" xmlns="http://www.w3.org/2000/svg">
<g filter="url(#filter0_bd_6692_45325)">
<path fill-rule="evenodd" clip-rule="evenodd" d="M12.4554 7H27.1875C28.5436 7 29.6429 8.13266 29.6429 9.52986V28.2052C29.6429 30.0859 27.722 31.309 26.0894 30.468L25.8302 30.3344C25.139 29.9783 24.3253 29.9783 23.6341 30.3344L20.9195 31.7329C20.2282 32.089 19.4146 32.089 18.7234 31.7329L16.0088 30.3344C15.3175 29.9783 14.5039 29.9783 13.8126 30.3344L13.5534 30.468C11.9209 31.309 10 30.0859 10 28.2052V9.52986C10 8.13266 11.0993 7 12.4554 7ZM23.624 12.9893C23.4388 12.7845 23.1226 12.7686 22.9178 12.9538C22.713 13.139 22.6971 13.4552 22.8823 13.66L23.843 14.7224C23.8371 14.7222 23.8311 14.7221 23.8251 14.7221L15.2458 14.7221C14.9696 14.7221 14.7458 14.9459 14.7458 15.2221C14.7458 15.4982 14.9696 15.7221 15.2458 15.7221L23.8251 15.7221C23.8311 15.7221 23.8371 15.7219 23.843 15.7217L22.8823 16.7841C22.6971 16.9889 22.713 17.3051 22.9178 17.4903C23.1226 17.6755 23.4388 17.6596 23.624 17.4548L24.9355 16.0046C25.331 15.5672 25.331 14.8769 24.9355 14.4395L23.624 12.9893ZM16.7605 18.7197C16.9457 18.5149 16.9299 18.1988 16.725 18.0135C16.5202 17.8283 16.204 17.8442 16.0188 18.049L14.7074 19.4992C14.3118 19.9366 14.3118 20.627 14.7074 21.0644L16.0188 22.5145C16.204 22.7194 16.5202 22.7352 16.725 22.55C16.9299 22.3648 16.9457 22.0486 16.7605 21.8438L15.7998 20.7815C15.8058 20.7817 15.8117 20.7818 15.8177 20.7818H24.3971C24.6732 20.7818 24.8971 20.5579 24.8971 20.2818C24.8971 20.0056 24.6732 19.7818 24.3971 19.7818H15.8177C15.8117 19.7818 15.8058 19.7819 15.7998 19.7821L16.7605 18.7197Z" fill="black" fill-opacity="0.7"/>
</g>
<defs>
<filter id="filter0_bd_6692_45325" x="-10" y="-10" width="60" height="60" filterUnits="userSpaceOnUse" color-interpolation-filters="sRGB">
<feFlood flood-opacity="0" result="BackgroundImageFix"/>
<feGaussianBlur in="BackgroundImageFix" stdDeviation="5"/>
<feComposite in2="SourceAlpha" operator="in" result="effect1_backgroundBlur_6692_45325"/>
<feColorMatrix in="SourceAlpha" type="matrix" values="0 0 0 0 0 0 0 0 0 0 0 0 0 0 0 0 0 0 127 0" result="hardAlpha"/>
<feOffset dy="1"/>
<feGaussianBlur stdDeviation="1.5"/>
<feColorMatrix type="matrix" values="0 0 0 0 0 0 0 0 0 0 0 0 0 0 0 0 0 0 0.2 0"/>
<feBlend mode="normal" in2="effect1_backgroundBlur_6692_45325" result="effect2_dropShadow_6692_45325"/>
<feBlend mode="normal" in="SourceGraphic" in2="effect2_dropShadow_6692_45325" result="shape"/>
</filter>
</defs>
</svg>
