<svg width="18" height="18" viewBox="0 0 18 18" fill="none" xmlns="http://www.w3.org/2000/svg">
<path d="M6.57688 8.00072C6.68212 7.93997 6.76952 7.85258 6.83028 7.74734C6.89105 7.6421 6.92304 7.52273 6.92304 7.40121V1.16503C6.92303 1.05428 6.89645 0.945152 6.84554 0.846802C6.79462 0.748452 6.72086 0.66375 6.63044 0.599808C6.54001 0.535865 6.43557 0.494548 6.32587 0.479323C6.21618 0.464099 6.10443 0.475412 6.00001 0.512313C3.97898 1.22919 2.27977 2.64315 1.20756 4.50024C0.13535 6.35733 -0.239594 8.53586 0.150071 10.6445C0.17019 10.7535 0.216182 10.8561 0.284178 10.9436C0.352174 11.0311 0.440187 11.101 0.540817 11.1474C0.641447 11.1939 0.751753 11.2154 0.86246 11.2104C0.973167 11.2053 1.08104 11.1737 1.17701 11.1183L6.57688 8.00072Z" fill="rgba(0, 0, 0, 0.7)"/>
<path d="M16.8119 4.53452C16.8061 4.52299 16.8008 4.51132 16.7942 4.5C16.7854 4.4847 16.7756 4.47038 16.7658 4.45605C15.9724 3.10052 14.8383 1.97609 13.476 1.1944C12.1136 0.412707 10.5706 0.000946278 8.99991 0C8.8163 1.83608e-06 8.6402 0.0729417 8.51037 0.202774C8.38054 0.332607 8.30759 0.508697 8.30759 0.692308V8.60031L1.45899 12.5543C1.29998 12.6461 1.18396 12.7973 1.13643 12.9747C1.08891 13.152 1.11379 13.341 1.20558 13.5C1.2085 13.505 1.21215 13.5093 1.21517 13.5143C1.22282 13.5298 1.23042 13.5453 1.23934 13.5605C2.24039 15.2634 3.7738 16.5896 5.60314 17.3349C7.43249 18.0801 9.45618 18.2028 11.3622 17.6842C13.2682 17.1656 14.9507 16.0344 16.1502 14.465C17.3498 12.8957 17.9998 10.9753 18 9C18.0019 7.43314 17.5922 5.89327 16.8119 4.53452Z" fill="rgba(0, 0, 0, 0.7)"/>
</svg>
