<svg width="40" height="40" viewBox="0 0 40 40" fill="none" xmlns="http://www.w3.org/2000/svg">
<path fill-rule="evenodd" clip-rule="evenodd" d="M10.2137 32.3655H26.412C28.9531 32.3655 30.2562 31.0698 30.2562 28.5693V10.8058C30.2562 8.30523 28.9531 7 26.412 7H12.8735C10.3421 7 9.02721 8.30523 9.02721 10.8058V30.0205C9.02721 30.2073 9.01961 30.384 9.01244 30.5505C8.97359 31.4527 8.94757 32.057 10.2137 32.3655ZM13.9943 18.3477C13.5408 18.3477 13.1991 18.006 13.1991 17.5738C13.1991 17.132 13.5429 16.7882 13.9943 16.7882H25.3083C25.7522 16.7882 26.096 17.132 26.096 17.5738C26.096 18.006 25.7543 18.3477 25.3083 18.3477H13.9943ZM21.1207 22.4064C20.6672 22.4064 20.333 22.0743 20.333 21.6442C20.333 21.1907 20.6651 20.849 21.1207 20.849H25.3083C25.7522 20.849 26.0822 21.1907 26.0822 21.6442C26.0822 22.0743 25.7522 22.4064 25.3083 22.4064H21.1207ZM21.1207 26.5007C20.6651 26.5007 20.333 26.1686 20.333 25.7364C20.333 25.2946 20.6672 24.9412 21.1207 24.9412H25.3083C25.7522 24.9412 26.0822 25.2946 26.0822 25.7364C26.0822 26.1686 25.7522 26.5007 25.3083 26.5007H21.1207ZM25.7147 8.87812C25.8045 8.60172 26.1955 8.60172 26.2853 8.87812L26.6062 9.86565C26.6464 9.98926 26.7616 10.0729 26.8915 10.0729H27.9299C28.2205 10.0729 28.3413 10.4448 28.1062 10.6157L27.2662 11.226C27.161 11.3024 27.117 11.4378 27.1572 11.5614L27.4781 12.5489C27.5679 12.8253 27.2515 13.0552 27.0164 12.8843L26.1764 12.274C26.0712 12.1976 25.9288 12.1976 25.8237 12.274L24.9836 12.8843C24.7485 13.0552 24.4322 12.8253 24.522 12.5489L24.8429 11.5614C24.883 11.4378 24.839 11.3024 24.7339 11.226L23.8938 10.6157C23.6587 10.4448 23.7795 10.0729 24.0702 10.0729H25.1085C25.2385 10.0729 25.3537 9.98926 25.3938 9.86565L25.7147 8.87812ZM15 21C14.1716 21 13.5 21.6716 13.5 22.5V25C13.5 25.8284 14.1716 26.5 15 26.5H17.5C18.3284 26.5 19 25.8284 19 25V22.5C19 21.6716 18.3284 21 17.5 21H15Z" fill="black" fill-opacity="0.3"/>
</svg>
